STARTFONT 2.1
COMMENT
COMMENT Converted from TrueType font "GOTHIC.TTF" by "ttf2bdf 2.6".
COMMENT
FONT -FreeType-Century Gothic-Medium-R-Normal--14-100-100-100-P-73-ISO10646-1
SIZE 10 100 100
FONTBOUNDINGBOX 20 21 -3 -5
STARTPROPERTIES 21
FOUNDRY "FreeType"
FAMILY_NAME "Century Gothic"
WEIGHT_NAME "Medium"
SLANT "R"
SETWIDTH_NAME "Normal"
ADD_STYLE_NAME ""
PIXEL_SIZE 14
POINT_SIZE 100
RESOLUTION_X 100
RESOLUTION_Y 100
SPACING "P"
AVERAGE_WIDTH 73
CHARSET_REGISTRY "ISO10646"
CHARSET_ENCODING "1"
FONT_ASCENT 14
FONT_DESCENT 3
COPYRIGHT "Typeface © The Monotype Corporation plc. Data © The Monotype Corporation plc / Type Solutions Inc. 1990-91 All Rights Reserved"
_TTF_FONTFILE "GOTHIC.TTF"
_TTF_PSNAME "CenturyGothic"
_XFREE86_GLYPH_RANGES "32_126 160_383 402 506_511 710_711 713 728_733 894 900_906 908 910_929 931_974 1025_1036 1038_1103 1105_1116 1118_1119 1168_1169 7808_7813 7922_7923 8211_8213 8215_8222 8224_8226 8230 8240 8242_8243 8249_8250 8252 8254 8260 8319 8355_8356 8359 8364 8453 8467 8470 8482 8486 8494 8539_8542 8592_8597 8616 8706 8710 8719 8721_8722 8725 8729_8730 8734_8735 8745 8747 8776 8800_8801 8804_8805 8962 8976 8992_8993 9472 9474 9484 9488 9492 9496 9500 9508 9516 9524 9532 9552_9580 9600 9604 9608"
_XFREE86_GLYPH_RANGES "9612 9616_9619 9632_9633 9642_9644 9650 9658 9660 9668 9674_9675 9679 9688_9689 9702 9786_9788 9792 9794 9824 9827 9829_9830 9834_9835 61440_61446 61696_61704 64257_64258"
ENDPROPERTIES
CHARS 668
STARTCHAR 0020
ENCODING 32
SWIDTH 288 0
DWIDTH 4 0
BBX 1 1 0 0
BITMAP
00
ENDCHAR
STARTCHAR 0021
ENCODING 33
SWIDTH 288 0
DWIDTH 4 0
BBX 1 10 1 0
BITMAP
80
80
80
80
80
80
80
00
80
80
ENDCHAR
STARTCHAR 0022
ENCODING 34
SWIDTH 288 0
DWIDTH 4 0
BBX 3 3 0 7
BITMAP
A0
A0
A0
ENDCHAR
STARTCHAR 0023
ENCODING 35
SWIDTH 720 0
DWIDTH 10 0
BBX 7 10 1 0
BITMAP
14
14
14
FE
28
28
FE
50
50
50
ENDCHAR
STARTCHAR 0024
ENCODING 36
SWIDTH 576 0
DWIDTH 8 0
BBX 7 13 0 -2
BITMAP
10
38
54
50
50
30
1C
12
12
92
7C
10
10
ENDCHAR
STARTCHAR 0025
ENCODING 37
SWIDTH 792 0
DWIDTH 11 0
BBX 10 10 0 0
BITMAP
7F80
8900
8A00
8A00
7400
0B80
1440
1440
2440
4380
ENDCHAR
STARTCHAR 0026
ENCODING 38
SWIDTH 792 0
DWIDTH 11 0
BBX 9 10 1 0
BITMAP
3800
4400
4400
2800
3000
4800
8500
8200
8500
7880
ENDCHAR
STARTCHAR 0027
ENCODING 39
SWIDTH 216 0
DWIDTH 3 0
BBX 1 3 1 7
BITMAP
80
80
80
ENDCHAR
STARTCHAR 0028
ENCODING 40
SWIDTH 360 0
DWIDTH 5 0
BBX 2 13 2 -3
BITMAP
40
40
80
80
80
80
80
80
80
80
80
40
40
ENDCHAR
STARTCHAR 0029
ENCODING 41
SWIDTH 360 0
DWIDTH 5 0
BBX 2 13 1 -3
BITMAP
80
80
40
40
40
40
40
40
40
40
40
80
80
ENDCHAR
STARTCHAR 002A
ENCODING 42
SWIDTH 432 0
DWIDTH 6 0
BBX 3 4 1 6
BITMAP
40
E0
E0
40
ENDCHAR
STARTCHAR 002B
ENCODING 43
SWIDTH 648 0
DWIDTH 9 0
BBX 7 7 1 2
BITMAP
10
10
10
FE
10
10
10
ENDCHAR
STARTCHAR 002C
ENCODING 44
SWIDTH 288 0
DWIDTH 4 0
BBX 2 3 1 -1
BITMAP
40
80
80
ENDCHAR
STARTCHAR 002D
ENCODING 45
SWIDTH 360 0
DWIDTH 5 0
BBX 4 1 0 3
BITMAP
F0
ENDCHAR
STARTCHAR 002E
ENCODING 46
SWIDTH 288 0
DWIDTH 4 0
BBX 2 2 1 0
BITMAP
C0
C0
ENDCHAR
STARTCHAR 002F
ENCODING 47
SWIDTH 432 0
DWIDTH 6 0
BBX 5 11 1 -1
BITMAP
08
10
10
10
20
20
20
40
40
40
80
ENDCHAR
STARTCHAR 0030
ENCODING 48
SWIDTH 576 0
DWIDTH 8 0
BBX 7 10 0 0
BITMAP
38
44
82
82
82
82
82
82
44
38
ENDCHAR
STARTCHAR 0031
ENCODING 49
SWIDTH 576 0
DWIDTH 8 0
BBX 3 10 2 0
BITMAP
E0
20
20
20
20
20
20
20
20
20
ENDCHAR
STARTCHAR 0032
ENCODING 50
SWIDTH 576 0
DWIDTH 8 0
BBX 7 10 0 0
BITMAP
3C
42
82
02
04
04
18
20
40
FE
ENDCHAR
STARTCHAR 0033
ENCODING 51
SWIDTH 576 0
DWIDTH 8 0
BBX 7 10 0 0
BITMAP
3C
42
82
02
1C
02
02
82
82
7C
ENDCHAR
STARTCHAR 0034
ENCODING 52
SWIDTH 576 0
DWIDTH 8 0
BBX 7 10 0 0
BITMAP
04
04
0C
14
14
24
44
FE
04
04
ENDCHAR
STARTCHAR 0035
ENCODING 53
SWIDTH 576 0
DWIDTH 8 0
BBX 7 10 0 0
BITMAP
3E
20
40
7C
42
02
02
82
42
3C
ENDCHAR
STARTCHAR 0036
ENCODING 54
SWIDTH 576 0
DWIDTH 8 0
BBX 6 10 1 0
BITMAP
08
10
20
20
78
84
84
84
84
78
ENDCHAR
STARTCHAR 0037
ENCODING 55
SWIDTH 576 0
DWIDTH 8 0
BBX 6 10 1 0
BITMAP
FC
08
08
10
10
20
20
40
40
80
ENDCHAR
STARTCHAR 0038
ENCODING 56
SWIDTH 576 0
DWIDTH 8 0
BBX 7 10 0 0
BITMAP
7C
82
82
82
7C
82
82
82
82
7C
ENDCHAR
STARTCHAR 0039
ENCODING 57
SWIDTH 576 0
DWIDTH 8 0
BBX 7 10 0 0
BITMAP
7C
82
82
82
82
7C
08
10
20
40
ENDCHAR
STARTCHAR 003A
ENCODING 58
SWIDTH 288 0
DWIDTH 4 0
BBX 2 7 1 0
BITMAP
C0
C0
00
00
00
C0
C0
ENDCHAR
STARTCHAR 003B
ENCODING 59
SWIDTH 288 0
DWIDTH 4 0
BBX 2 8 1 -1
BITMAP
C0
C0
00
00
00
40
80
80
ENDCHAR
STARTCHAR 003C
ENCODING 60
SWIDTH 576 0
DWIDTH 8 0
BBX 7 7 0 2
BITMAP
02
0C
70
80
70
0C
02
ENDCHAR
STARTCHAR 003D
ENCODING 61
SWIDTH 576 0
DWIDTH 8 0
BBX 6 4 1 3
BITMAP
FC
00
00
FC
ENDCHAR
STARTCHAR 003E
ENCODING 62
SWIDTH 576 0
DWIDTH 8 0
BBX 7 7 0 2
BITMAP
80
60
1C
02
1C
60
80
ENDCHAR
STARTCHAR 003F
ENCODING 63
SWIDTH 576 0
DWIDTH 8 0
BBX 5 10 1 0
BITMAP
70
88
88
10
20
48
30
00
30
30
ENDCHAR
STARTCHAR 0040
ENCODING 64
SWIDTH 864 0
DWIDTH 12 0
BBX 10 10 1 0
BITMAP
1E00
2100
4080
8E40
9240
A240
A280
5D00
2040
1F80
ENDCHAR
STARTCHAR 0041
ENCODING 65
SWIDTH 648 0
DWIDTH 9 0
BBX 9 10 0 0
BITMAP
0800
1400
1400
1400
2200
2200
7F00
4100
4100
8080
ENDCHAR
STARTCHAR 0042
ENCODING 66
SWIDTH 576 0
DWIDTH 8 0
BBX 6 10 1 0
BITMAP
F0
88
88
88
F8
84
84
84
84
F8
ENDCHAR
STARTCHAR 0043
ENCODING 67
SWIDTH 792 0
DWIDTH 11 0
BBX 9 10 1 0
BITMAP
1E00
2100
4080
8000
8000
8000
8000
4080
2100
1E00
ENDCHAR
STARTCHAR 0044
ENCODING 68
SWIDTH 720 0
DWIDTH 10 0
BBX 8 10 1 0
BITMAP
F8
84
82
81
81
81
81
82
84
F8
ENDCHAR
STARTCHAR 0045
ENCODING 69
SWIDTH 576 0
DWIDTH 8 0
BBX 6 10 1 0
BITMAP
FC
80
80
80
FC
80
80
80
80
FC
ENDCHAR
STARTCHAR 0046
ENCODING 70
SWIDTH 504 0
DWIDTH 7 0
BBX 5 10 1 0
BITMAP
F8
80
80
80
F8
80
80
80
80
80
ENDCHAR
STARTCHAR 0047
ENCODING 71
SWIDTH 864 0
DWIDTH 12 0
BBX 10 10 1 0
BITMAP
1E00
2100
4080
8000
8000
83C0
8040
4080
2080
1F00
ENDCHAR
STARTCHAR 0048
ENCODING 72
SWIDTH 720 0
DWIDTH 10 0
BBX 6 10 2 0
BITMAP
84
84
84
84
FC
84
84
84
84
84
ENDCHAR
STARTCHAR 0049
ENCODING 73
SWIDTH 216 0
DWIDTH 3 0
BBX 1 10 1 0
BITMAP
80
80
80
80
80
80
80
80
80
80
ENDCHAR
STARTCHAR 004A
ENCODING 74
SWIDTH 504 0
DWIDTH 7 0
BBX 5 10 1 0
BITMAP
08
08
08
08
08
08
08
08
88
70
ENDCHAR
STARTCHAR 004B
ENCODING 75
SWIDTH 576 0
DWIDTH 8 0
BBX 6 10 1 0
BITMAP
84
98
A0
C0
C0
A0
90
90
88
84
ENDCHAR
STARTCHAR 004C
ENCODING 76
SWIDTH 432 0
DWIDTH 6 0
BBX 5 10 1 0
BITMAP
80
80
80
80
80
80
80
80
80
F8
ENDCHAR
STARTCHAR 004D
ENCODING 77
SWIDTH 936 0
DWIDTH 13 0
BBX 11 10 1 0
BITMAP
4040
4040
A0A0
A0A0
9120
9120
9120
8A20
8A20
8420
ENDCHAR
STARTCHAR 004E
ENCODING 78
SWIDTH 720 0
DWIDTH 10 0
BBX 8 10 1 0
BITMAP
81
81
C1
A1
91
89
85
83
81
81
ENDCHAR
STARTCHAR 004F
ENCODING 79
SWIDTH 864 0
DWIDTH 12 0
BBX 10 10 1 0
BITMAP
1E00
2100
4080
8040
8040
8040
8040
4080
2100
1E00
ENDCHAR
STARTCHAR 0050
ENCODING 80
SWIDTH 576 0
DWIDTH 8 0
BBX 6 10 1 0
BITMAP
F8
84
84
84
F8
80
80
80
80
80
ENDCHAR
STARTCHAR 0051
ENCODING 81
SWIDTH 864 0
DWIDTH 12 0
BBX 10 11 1 -1
BITMAP
1E00
2100
4080
8040
8040
8040
8440
4280
2100
1E80
0040
ENDCHAR
STARTCHAR 0052
ENCODING 82
SWIDTH 648 0
DWIDTH 9 0
BBX 7 10 1 0
BITMAP
FC
82
82
82
FC
A0
90
88
84
82
ENDCHAR
STARTCHAR 0053
ENCODING 83
SWIDTH 504 0
DWIDTH 7 0
BBX 6 10 0 0
BITMAP
38
44
40
20
10
08
04
84
44
78
ENDCHAR
STARTCHAR 0054
ENCODING 84
SWIDTH 360 0
DWIDTH 5 0
BBX 5 10 0 0
BITMAP
F8
20
20
20
20
20
20
20
20
20
ENDCHAR
STARTCHAR 0055
ENCODING 85
SWIDTH 648 0
DWIDTH 9 0
BBX 7 10 1 0
BITMAP
82
82
82
82
82
82
82
82
82
7C
ENDCHAR
STARTCHAR 0056
ENCODING 86
SWIDTH 648 0
DWIDTH 9 0
BBX 9 10 0 0
BITMAP
8080
4100
4100
4100
2200
2200
1400
1400
1400
0800
ENDCHAR
STARTCHAR 0057
ENCODING 87
SWIDTH 1080 0
DWIDTH 15 0
BBX 13 10 1 0
BITMAP
8208
8208
4510
4510
4510
28A0
28A0
28A0
1040
1040
ENDCHAR
STARTCHAR 0058
ENCODING 88
SWIDTH 648 0
DWIDTH 9 0
BBX 7 10 1 0
BITMAP
82
44
44
28
10
10
28
44
44
82
ENDCHAR
STARTCHAR 0059
ENCODING 89
SWIDTH 504 0
DWIDTH 7 0
BBX 7 10 0 0
BITMAP
82
44
44
28
10
10
10
10
10
10
ENDCHAR
STARTCHAR 005A
ENCODING 90
SWIDTH 504 0
DWIDTH 7 0
BBX 6 10 0 0
BITMAP
FC
08
08
10
10
20
20
40
40
FC
ENDCHAR
STARTCHAR 005B
ENCODING 91
SWIDTH 360 0
DWIDTH 5 0
BBX 2 13 2 -3
BITMAP
C0
80
80
80
80
80
80
80
80
80
80
80
C0
ENDCHAR
STARTCHAR 005C
ENCODING 92
SWIDTH 576 0
DWIDTH 8 0
BBX 7 11 0 -1
BITMAP
80
40
40
20
20
10
08
08
04
04
02
ENDCHAR
STARTCHAR 005D
ENCODING 93
SWIDTH 360 0
DWIDTH 5 0
BBX 2 13 1 -3
BITMAP
C0
40
40
40
40
40
40
40
40
40
40
40
C0
ENDCHAR
STARTCHAR 005E
ENCODING 94
SWIDTH 648 0
DWIDTH 9 0
BBX 7 7 1 3
BITMAP
10
28
28
68
44
44
82
ENDCHAR
STARTCHAR 005F
ENCODING 95
SWIDTH 504 0
DWIDTH 7 0
BBX 7 1 0 -2
BITMAP
FE
ENDCHAR
STARTCHAR 0060
ENCODING 96
SWIDTH 360 0
DWIDTH 5 0
BBX 2 2 1 9
BITMAP
80
40
ENDCHAR
STARTCHAR 0061
ENCODING 97
SWIDTH 720 0
DWIDTH 10 0
BBX 8 7 1 0
BITMAP
3D
43
81
81
81
43
3D
ENDCHAR
STARTCHAR 0062
ENCODING 98
SWIDTH 720 0
DWIDTH 10 0
BBX 8 10 1 0
BITMAP
80
80
80
BC
C2
81
81
81
C2
BC
ENDCHAR
STARTCHAR 0063
ENCODING 99
SWIDTH 648 0
DWIDTH 9 0
BBX 7 7 1 0
BITMAP
3C
42
80
80
80
42
3C
ENDCHAR
STARTCHAR 0064
ENCODING 100
SWIDTH 720 0
DWIDTH 10 0
BBX 8 10 1 0
BITMAP
01
01
01
3D
43
81
81
81
43
3D
ENDCHAR
STARTCHAR 0065
ENCODING 101
SWIDTH 648 0
DWIDTH 9 0
BBX 7 7 1 0
BITMAP
38
44
82
FE
80
42
3C
ENDCHAR
STARTCHAR 0066
ENCODING 102
SWIDTH 288 0
DWIDTH 4 0
BBX 4 10 0 0
BITMAP
30
40
40
F0
40
40
40
40
40
40
ENDCHAR
STARTCHAR 0067
ENCODING 103
SWIDTH 648 0
DWIDTH 9 0
BBX 7 10 1 -3
BITMAP
3A
46
82
82
82
46
3A
02
84
78
ENDCHAR
STARTCHAR 0068
ENCODING 104
SWIDTH 648 0
DWIDTH 9 0
BBX 7 10 1 0
BITMAP
80
80
80
B8
C4
82
82
82
82
82
ENDCHAR
STARTCHAR 0069
ENCODING 105
SWIDTH 216 0
DWIDTH 3 0
BBX 1 10 1 0
BITMAP
80
80
00
80
80
80
80
80
80
80
ENDCHAR
STARTCHAR 006A
ENCODING 106
SWIDTH 216 0
DWIDTH 3 0
BBX 2 13 0 -3
BITMAP
40
40
00
40
40
40
40
40
40
40
40
40
80
ENDCHAR
STARTCHAR 006B
ENCODING 107
SWIDTH 504 0
DWIDTH 7 0
BBX 5 10 1 0
BITMAP
80
80
80
88
B0
C0
C0
A0
90
88
ENDCHAR
STARTCHAR 006C
ENCODING 108
SWIDTH 216 0
DWIDTH 3 0
BBX 1 10 1 0
BITMAP
80
80
80
80
80
80
80
80
80
80
ENDCHAR
STARTCHAR 006D
ENCODING 109
SWIDTH 936 0
DWIDTH 13 0
BBX 11 7 1 0
BITMAP
B9C0
C620
8420
8420
8420
8420
8420
ENDCHAR
STARTCHAR 006E
ENCODING 110
SWIDTH 648 0
DWIDTH 9 0
BBX 7 7 1 0
BITMAP
B8
C4
82
82
82
82
82
ENDCHAR
STARTCHAR 006F
ENCODING 111
SWIDTH 648 0
DWIDTH 9 0
BBX 7 7 1 0
BITMAP
38
44
82
82
82
44
38
ENDCHAR
STARTCHAR 0070
ENCODING 112
SWIDTH 720 0
DWIDTH 10 0
BBX 8 10 1 -3
BITMAP
BC
C2
81
81
81
C2
BC
80
80
80
ENDCHAR
STARTCHAR 0071
ENCODING 113
SWIDTH 720 0
DWIDTH 10 0
BBX 8 10 1 -3
BITMAP
3D
43
81
81
81
43
3D
01
01
01
ENDCHAR
STARTCHAR 0072
ENCODING 114
SWIDTH 288 0
DWIDTH 4 0
BBX 3 7 1 0
BITMAP
A0
C0
80
80
80
80
80
ENDCHAR
STARTCHAR 0073
ENCODING 115
SWIDTH 360 0
DWIDTH 5 0
BBX 4 7 0 0
BITMAP
60
90
80
60
10
90
60
ENDCHAR
STARTCHAR 0074
ENCODING 116
SWIDTH 360 0
DWIDTH 5 0
BBX 3 10 1 0
BITMAP
40
40
40
E0
40
40
40
40
40
40
ENDCHAR
STARTCHAR 0075
ENCODING 117
SWIDTH 648 0
DWIDTH 9 0
BBX 7 7 1 0
BITMAP
82
82
82
82
82
44
38
ENDCHAR
STARTCHAR 0076
ENCODING 118
SWIDTH 576 0
DWIDTH 8 0
BBX 7 7 0 0
BITMAP
82
44
44
2C
28
28
10
ENDCHAR
STARTCHAR 0077
ENCODING 119
SWIDTH 864 0
DWIDTH 12 0
BBX 11 7 0 0
BITMAP
8420
4440
4A40
2A80
2A80
2A80
1100
ENDCHAR
STARTCHAR 0078
ENCODING 120
SWIDTH 504 0
DWIDTH 7 0
BBX 7 7 0 0
BITMAP
82
44
28
10
28
44
82
ENDCHAR
STARTCHAR 0079
ENCODING 121
SWIDTH 576 0
DWIDTH 8 0
BBX 8 10 0 -3
BITMAP
81
42
42
24
24
18
18
10
10
20
ENDCHAR
STARTCHAR 007A
ENCODING 122
SWIDTH 432 0
DWIDTH 6 0
BBX 6 7 0 0
BITMAP
FC
08
10
20
20
40
FC
ENDCHAR
STARTCHAR 007B
ENCODING 123
SWIDTH 360 0
DWIDTH 5 0
BBX 3 13 1 -3
BITMAP
60
40
40
40
40
40
80
40
40
40
40
40
60
ENDCHAR
STARTCHAR 007C
ENCODING 124
SWIDTH 648 0
DWIDTH 9 0
BBX 1 13 4 -3
BITMAP
80
80
80
80
80
80
80
80
80
80
80
80
80
ENDCHAR
STARTCHAR 007D
ENCODING 125
SWIDTH 288 0
DWIDTH 4 0
BBX 3 13 0 -3
BITMAP
C0
40
40
40
40
40
20
40
40
40
40
40
C0
ENDCHAR
STARTCHAR 007E
ENCODING 126
SWIDTH 576 0
DWIDTH 8 0
BBX 6 2 1 4
BITMAP
64
98
ENDCHAR
STARTCHAR 00A0
ENCODING 160
SWIDTH 288 0
DWIDTH 4 0
BBX 1 1 0 0
BITMAP
00
ENDCHAR
STARTCHAR 00A1
ENCODING 161
SWIDTH 288 0
DWIDTH 4 0
BBX 1 10 1 -3
BITMAP
80
80
00
80
80
80
80
80
80
80
ENDCHAR
STARTCHAR 00A2
ENCODING 162
SWIDTH 576 0
DWIDTH 8 0
BBX 6 10 1 -2
BITMAP
04
38
4C
90
90
A0
64
38
40
80
ENDCHAR
STARTCHAR 00A3
ENCODING 163
SWIDTH 576 0
DWIDTH 8 0
BBX 7 10 0 0
BITMAP
38
44
44
40
F8
20
20
E2
B2
DC
ENDCHAR
STARTCHAR 00A4
ENCODING 164
SWIDTH 576 0
DWIDTH 8 0
BBX 7 7 0 0
BITMAP
BA
44
82
82
82
44
BA
ENDCHAR
STARTCHAR 00A5
ENCODING 165
SWIDTH 576 0
DWIDTH 8 0
BBX 7 10 0 0
BITMAP
82
44
44
28
10
FE
10
FE
10
10
ENDCHAR
STARTCHAR 00A6
ENCODING 166
SWIDTH 648 0
DWIDTH 9 0
BBX 1 13 4 -3
BITMAP
80
80
80
80
80
00
80
80
80
80
80
80
80
ENDCHAR
STARTCHAR 00A7
ENCODING 167
SWIDTH 648 0
DWIDTH 9 0
BBX 6 13 1 -3
BITMAP
78
84
80
C0
70
88
84
44
38
0C
04
84
78
ENDCHAR
STARTCHAR 00A8
ENCODING 168
SWIDTH 360 0
DWIDTH 5 0
BBX 5 2 0 9
BITMAP
D8
D8
ENDCHAR
STARTCHAR 00A9
ENCODING 169
SWIDTH 720 0
DWIDTH 10 0
BBX 10 10 0 0
BITMAP
1E00
2100
4C80
9240
9040
9240
9240
4C80
2100
1E00
ENDCHAR
STARTCHAR 00AA
ENCODING 170
SWIDTH 360 0
DWIDTH 5 0
BBX 4 4 0 6
BITMAP
70
90
90
70
ENDCHAR
STARTCHAR 00AB
ENCODING 171
SWIDTH 360 0
DWIDTH 5 0
BBX 5 7 0 0
BITMAP
48
48
90
90
90
48
48
ENDCHAR
STARTCHAR 00AC
ENCODING 172
SWIDTH 576 0
DWIDTH 8 0
BBX 6 4 1 3
BITMAP
FC
04
04
04
ENDCHAR
STARTCHAR 00AD
ENCODING 173
SWIDTH 360 0
DWIDTH 5 0
BBX 4 1 0 3
BITMAP
F0
ENDCHAR
STARTCHAR 00AE
ENCODING 174
SWIDTH 720 0
DWIDTH 10 0
BBX 10 10 0 0
BITMAP
1E00
2100
4080
9C40
9240
9E40
9240
4080
2100
1E00
ENDCHAR
STARTCHAR 00AF
ENCODING 175
SWIDTH 504 0
DWIDTH 7 0
BBX 9 1 -1 11
BITMAP
FF80
ENDCHAR
STARTCHAR 00B0
ENCODING 176
SWIDTH 432 0
DWIDTH 6 0
BBX 5 5 0 5
BITMAP
70
88
88
88
70
ENDCHAR
STARTCHAR 00B1
ENCODING 177
SWIDTH 576 0
DWIDTH 8 0
BBX 7 9 0 0
BITMAP
10
10
10
FE
10
10
10
00
FE
ENDCHAR
STARTCHAR 00B2
ENCODING 178
SWIDTH 360 0
DWIDTH 5 0
BBX 4 5 0 5
BITMAP
60
90
20
40
F0
ENDCHAR
STARTCHAR 00B3
ENCODING 179
SWIDTH 360 0
DWIDTH 5 0
BBX 4 5 0 5
BITMAP
60
90
20
90
60
ENDCHAR
STARTCHAR 00B4
ENCODING 180
SWIDTH 360 0
DWIDTH 5 0
BBX 2 2 1 9
BITMAP
40
80
ENDCHAR
STARTCHAR 00B5
ENCODING 181
SWIDTH 576 0
DWIDTH 8 0
BBX 6 10 1 -3
BITMAP
84
84
84
84
84
CC
B4
80
80
80
ENDCHAR
STARTCHAR 00B6
ENCODING 182
SWIDTH 648 0
DWIDTH 9 0
BBX 8 12 0 -2
BITMAP
7F
F2
F2
F2
F2
72
12
12
12
12
12
12
ENDCHAR
STARTCHAR 00B7
ENCODING 183
SWIDTH 360 0
DWIDTH 5 0
BBX 2 2 3 4
BITMAP
C0
C0
ENDCHAR
STARTCHAR 00B8
ENCODING 184
SWIDTH 360 0
DWIDTH 5 0
BBX 3 4 1 -3
BITMAP
40
40
20
C0
ENDCHAR
STARTCHAR 00B9
ENCODING 185
SWIDTH 360 0
DWIDTH 5 0
BBX 2 5 1 5
BITMAP
C0
40
40
40
40
ENDCHAR
STARTCHAR 00BA
ENCODING 186
SWIDTH 360 0
DWIDTH 5 0
BBX 4 4 0 6
BITMAP
60
90
90
60
ENDCHAR
STARTCHAR 00BB
ENCODING 187
SWIDTH 360 0
DWIDTH 5 0
BBX 5 7 0 0
BITMAP
90
90
48
48
48
90
90
ENDCHAR
STARTCHAR 00BC
ENCODING 188
SWIDTH 864 0
DWIDTH 12 0
BBX 11 10 1 0
BITMAP
C080
4100
4200
4200
4400
0840
10C0
1140
23E0
4040
ENDCHAR
STARTCHAR 00BD
ENCODING 189
SWIDTH 864 0
DWIDTH 12 0
BBX 9 10 1 0
BITMAP
C100
4200
4400
4400
4800
1300
2480
2100
4200
8780
ENDCHAR
STARTCHAR 00BE
ENCODING 190
SWIDTH 864 0
DWIDTH 12 0
BBX 12 10 0 0
BITMAP
6040
9080
2100
9100
6200
0420
0860
08A0
11F0
2020
ENDCHAR
STARTCHAR 00BF
ENCODING 191
SWIDTH 576 0
DWIDTH 8 0
BBX 6 10 1 -3
BITMAP
30
30
00
70
88
10
60
84
84
78
ENDCHAR
STARTCHAR 00C0
ENCODING 192
SWIDTH 648 0
DWIDTH 9 0
BBX 9 13 0 0
BITMAP
1000
0800
0000
0800
1400
1400
1400
2200
2200
7F00
4100
4100
8080
ENDCHAR
STARTCHAR 00C1
ENCODING 193
SWIDTH 648 0
DWIDTH 9 0
BBX 9 13 0 0
BITMAP
0400
0800
0000
0800
1400
1400
1400
2200
2200
7F00
4100
4100
8080
ENDCHAR
STARTCHAR 00C2
ENCODING 194
SWIDTH 648 0
DWIDTH 9 0
BBX 9 14 0 0
BITMAP
0800
1400
2200
0000
0800
1400
1400
1400
2200
2200
7F00
4100
4100
8080
ENDCHAR
STARTCHAR 00C3
ENCODING 195
SWIDTH 648 0
DWIDTH 9 0
BBX 9 13 0 0
BITMAP
1A00
2C00
0000
0800
1400
1400
1400
2200
2200
7F00
4100
4100
8080
ENDCHAR
STARTCHAR 00C4
ENCODING 196
SWIDTH 648 0
DWIDTH 9 0
BBX 9 13 0 0
BITMAP
3600
3600
0000
0800
1400
1400
1400
2200
2200
7F00
4100
4100
8080
ENDCHAR
STARTCHAR 00C5
ENCODING 197
SWIDTH 648 0
DWIDTH 9 0
BBX 9 14 0 0
BITMAP
0800
1400
0800
0000
0800
1400
1400
1400
2200
2200
7F00
4100
4100
8080
ENDCHAR
STARTCHAR 00C6
ENCODING 198
SWIDTH 1008 0
DWIDTH 14 0
BBX 13 10 0 0
BITMAP
03F8
0300
0500
0900
09F8
1100
3F00
2100
4100
81F8
ENDCHAR
STARTCHAR 00C7
ENCODING 199
SWIDTH 792 0
DWIDTH 11 0
BBX 9 13 1 -3
BITMAP
1E00
2100
4080
8000
8000
8000
8000
4080
2100
1E00
0800
0400
1800
ENDCHAR
STARTCHAR 00C8
ENCODING 200
SWIDTH 576 0
DWIDTH 8 0
BBX 6 13 1 0
BITMAP
20
10
00
FC
80
80
80
FC
80
80
80
80
FC
ENDCHAR
STARTCHAR 00C9
ENCODING 201
SWIDTH 576 0
DWIDTH 8 0
BBX 6 13 1 0
BITMAP
10
20
00
FC
80
80
80
FC
80
80
80
80
FC
ENDCHAR
STARTCHAR 00CA
ENCODING 202
SWIDTH 576 0
DWIDTH 8 0
BBX 6 14 1 0
BITMAP
20
50
88
00
FC
80
80
80
FC
80
80
80
80
FC
ENDCHAR
STARTCHAR 00CB
ENCODING 203
SWIDTH 576 0
DWIDTH 8 0
BBX 6 13 1 0
BITMAP
D8
D8
00
FC
80
80
80
FC
80
80
80
80
FC
ENDCHAR
STARTCHAR 00CC
ENCODING 204
SWIDTH 216 0
DWIDTH 3 0
BBX 2 13 0 0
BITMAP
80
40
00
40
40
40
40
40
40
40
40
40
40
ENDCHAR
STARTCHAR 00CD
ENCODING 205
SWIDTH 216 0
DWIDTH 3 0
BBX 2 13 1 0
BITMAP
40
80
00
80
80
80
80
80
80
80
80
80
80
ENDCHAR
STARTCHAR 00CE
ENCODING 206
SWIDTH 216 0
DWIDTH 3 0
BBX 5 14 -1 0
BITMAP
20
50
88
00
20
20
20
20
20
20
20
20
20
20
ENDCHAR
STARTCHAR 00CF
ENCODING 207
SWIDTH 216 0
DWIDTH 3 0
BBX 5 13 -1 0
BITMAP
D8
D8
00
20
20
20
20
20
20
20
20
20
20
ENDCHAR
STARTCHAR 00D0
ENCODING 208
SWIDTH 792 0
DWIDTH 11 0
BBX 10 10 0 0
BITMAP
7E00
4100
4080
4040
F840
4040
4040
4080
4100
7E00
ENDCHAR
STARTCHAR 00D1
ENCODING 209
SWIDTH 720 0
DWIDTH 10 0
BBX 8 13 1 0
BITMAP
1A
2C
00
81
81
C1
A1
91
89
85
83
81
81
ENDCHAR
STARTCHAR 00D2
ENCODING 210
SWIDTH 864 0
DWIDTH 12 0
BBX 10 13 1 0
BITMAP
0800
0400
0000
1E00
2100
4080
8040
8040
8040
8040
4080
2100
1E00
ENDCHAR
STARTCHAR 00D3
ENCODING 211
SWIDTH 864 0
DWIDTH 12 0
BBX 10 13 1 0
BITMAP
0400
0800
0000
1E00
2100
4080
8040
8040
8040
8040
4080
2100
1E00
ENDCHAR
STARTCHAR 00D4
ENCODING 212
SWIDTH 864 0
DWIDTH 12 0
BBX 10 14 1 0
BITMAP
0800
1400
2200
0000
1E00
2100
4080
8040
8040
8040
8040
4080
2100
1E00
ENDCHAR
STARTCHAR 00D5
ENCODING 213
SWIDTH 864 0
DWIDTH 12 0
BBX 10 13 1 0
BITMAP
0D00
1600
0000
1E00
2100
4080
8040
8040
8040
8040
4080
2100
1E00
ENDCHAR
STARTCHAR 00D6
ENCODING 214
SWIDTH 864 0
DWIDTH 12 0
BBX 10 13 1 0
BITMAP
3600
3600
0000
1E00
2100
4080
8040
8040
8040
8040
4080
2100
1E00
ENDCHAR
STARTCHAR 00D7
ENCODING 215
SWIDTH 720 0
DWIDTH 10 0
BBX 5 5 2 2
BITMAP
88
50
20
50
88
ENDCHAR
STARTCHAR 00D8
ENCODING 216
SWIDTH 864 0
DWIDTH 12 0
BBX 10 10 1 0
BITMAP
1E40
2180
4180
8240
8440
8840
9040
6080
6100
9E00
ENDCHAR
STARTCHAR 00D9
ENCODING 217
SWIDTH 648 0
DWIDTH 9 0
BBX 7 13 1 0
BITMAP
20
10
00
82
82
82
82
82
82
82
82
82
7C
ENDCHAR
STARTCHAR 00DA
ENCODING 218
SWIDTH 648 0
DWIDTH 9 0
BBX 7 13 1 0
BITMAP
08
10
00
82
82
82
82
82
82
82
82
82
7C
ENDCHAR
STARTCHAR 00DB
ENCODING 219
SWIDTH 648 0
DWIDTH 9 0
BBX 7 14 1 0
BITMAP
10
28
44
00
82
82
82
82
82
82
82
82
82
7C
ENDCHAR
STARTCHAR 00DC
ENCODING 220
SWIDTH 648 0
DWIDTH 9 0
BBX 7 13 1 0
BITMAP
6C
6C
00
82
82
82
82
82
82
82
82
82
7C
ENDCHAR
STARTCHAR 00DD
ENCODING 221
SWIDTH 504 0
DWIDTH 7 0
BBX 7 13 0 0
BITMAP
08
10
00
82
44
44
28
10
10
10
10
10
10
ENDCHAR
STARTCHAR 00DE
ENCODING 222
SWIDTH 576 0
DWIDTH 8 0
BBX 6 10 1 0
BITMAP
80
80
F8
84
84
84
84
F8
80
80
ENDCHAR
STARTCHAR 00DF
ENCODING 223
SWIDTH 576 0
DWIDTH 8 0
BBX 6 10 1 0
BITMAP
78
84
84
84
B8
8C
84
84
84
B8
ENDCHAR
STARTCHAR 00E0
ENCODING 224
SWIDTH 720 0
DWIDTH 10 0
BBX 8 10 1 0
BITMAP
10
08
00
3D
43
81
81
81
43
3D
ENDCHAR
STARTCHAR 00E1
ENCODING 225
SWIDTH 720 0
DWIDTH 10 0
BBX 8 10 1 0
BITMAP
08
10
00
3D
43
81
81
81
43
3D
ENDCHAR
STARTCHAR 00E2
ENCODING 226
SWIDTH 720 0
DWIDTH 10 0
BBX 8 11 1 0
BITMAP
10
28
44
00
3D
43
81
81
81
43
3D
ENDCHAR
STARTCHAR 00E3
ENCODING 227
SWIDTH 720 0
DWIDTH 10 0
BBX 8 10 1 0
BITMAP
1A
2C
00
3D
43
81
81
81
43
3D
ENDCHAR
STARTCHAR 00E4
ENCODING 228
SWIDTH 720 0
DWIDTH 10 0
BBX 8 10 1 0
BITMAP
36
36
00
3D
43
81
81
81
43
3D
ENDCHAR
STARTCHAR 00E5
ENCODING 229
SWIDTH 720 0
DWIDTH 10 0
BBX 8 11 1 0
BITMAP
08
14
08
00
3D
43
81
81
81
43
3D
ENDCHAR
STARTCHAR 00E6
ENCODING 230
SWIDTH 1152 0
DWIDTH 16 0
BBX 14 7 1 0
BITMAP
3D70
4388
8104
81FC
8100
4384
3D78
ENDCHAR
STARTCHAR 00E7
ENCODING 231
SWIDTH 648 0
DWIDTH 9 0
BBX 7 10 1 -3
BITMAP
3C
42
80
80
80
42
3C
10
08
30
ENDCHAR
STARTCHAR 00E8
ENCODING 232
SWIDTH 648 0
DWIDTH 9 0
BBX 7 10 1 0
BITMAP
20
10
00
38
44
82
FE
80
42
3C
ENDCHAR
STARTCHAR 00E9
ENCODING 233
SWIDTH 648 0
DWIDTH 9 0
BBX 7 10 1 0
BITMAP
08
10
00
38
44
82
FE
80
42
3C
ENDCHAR
STARTCHAR 00EA
ENCODING 234
SWIDTH 648 0
DWIDTH 9 0
BBX 7 11 1 0
BITMAP
10
28
44
00
38
44
82
FE
80
42
3C
ENDCHAR
STARTCHAR 00EB
ENCODING 235
SWIDTH 648 0
DWIDTH 9 0
BBX 7 10 1 0
BITMAP
6C
6C
00
38
44
82
FE
80
42
3C
ENDCHAR
STARTCHAR 00EC
ENCODING 236
SWIDTH 216 0
DWIDTH 3 0
BBX 2 10 0 0
BITMAP
80
40
00
40
40
40
40
40
40
40
ENDCHAR
STARTCHAR 00ED
ENCODING 237
SWIDTH 216 0
DWIDTH 3 0
BBX 2 10 1 0
BITMAP
40
80
00
80
80
80
80
80
80
80
ENDCHAR
STARTCHAR 00EE
ENCODING 238
SWIDTH 216 0
DWIDTH 3 0
BBX 5 11 -1 0
BITMAP
20
50
88
00
20
20
20
20
20
20
20
ENDCHAR
STARTCHAR 00EF
ENCODING 239
SWIDTH 216 0
DWIDTH 3 0
BBX 5 10 -1 0
BITMAP
D8
D8
00
20
20
20
20
20
20
20
ENDCHAR
STARTCHAR 00F0
ENCODING 240
SWIDTH 648 0
DWIDTH 9 0
BBX 7 10 1 0
BITMAP
18
38
0C
3C
46
82
82
82
44
38
ENDCHAR
STARTCHAR 00F1
ENCODING 241
SWIDTH 648 0
DWIDTH 9 0
BBX 7 10 1 0
BITMAP
34
58
00
B8
C4
82
82
82
82
82
ENDCHAR
STARTCHAR 00F2
ENCODING 242
SWIDTH 648 0
DWIDTH 9 0
BBX 7 10 1 0
BITMAP
20
10
00
38
44
82
82
82
44
38
ENDCHAR
STARTCHAR 00F3
ENCODING 243
SWIDTH 648 0
DWIDTH 9 0
BBX 7 10 1 0
BITMAP
08
10
00
38
44
82
82
82
44
38
ENDCHAR
STARTCHAR 00F4
ENCODING 244
SWIDTH 648 0
DWIDTH 9 0
BBX 7 11 1 0
BITMAP
10
28
44
00
38
44
82
82
82
44
38
ENDCHAR
STARTCHAR 00F5
ENCODING 245
SWIDTH 648 0
DWIDTH 9 0
BBX 7 10 1 0
BITMAP
34
58
00
38
44
82
82
82
44
38
ENDCHAR
STARTCHAR 00F6
ENCODING 246
SWIDTH 648 0
DWIDTH 9 0
BBX 7 10 1 0
BITMAP
6C
6C
00
38
44
82
82
82
44
38
ENDCHAR
STARTCHAR 00F7
ENCODING 247
SWIDTH 576 0
DWIDTH 8 0
BBX 7 7 0 2
BITMAP
10
00
00
FE
00
00
10
ENDCHAR
STARTCHAR 00F8
ENCODING 248
SWIDTH 648 0
DWIDTH 9 0
BBX 7 7 1 0
BITMAP
3A
44
8A
92
A2
44
B8
ENDCHAR
STARTCHAR 00F9
ENCODING 249
SWIDTH 648 0
DWIDTH 9 0
BBX 7 10 1 0
BITMAP
20
10
00
82
82
82
82
82
44
38
ENDCHAR
STARTCHAR 00FA
ENCODING 250
SWIDTH 648 0
DWIDTH 9 0
BBX 7 10 1 0
BITMAP
08
10
00
82
82
82
82
82
44
38
ENDCHAR
STARTCHAR 00FB
ENCODING 251
SWIDTH 648 0
DWIDTH 9 0
BBX 7 11 1 0
BITMAP
10
28
44
00
82
82
82
82
82
44
38
ENDCHAR
STARTCHAR 00FC
ENCODING 252
SWIDTH 648 0
DWIDTH 9 0
BBX 7 10 1 0
BITMAP
6C
6C
00
82
82
82
82
82
44
38
ENDCHAR
STARTCHAR 00FD
ENCODING 253
SWIDTH 576 0
DWIDTH 8 0
BBX 8 13 0 -3
BITMAP
08
10
00
81
42
42
24
24
18
18
10
10
20
ENDCHAR
STARTCHAR 00FE
ENCODING 254
SWIDTH 720 0
DWIDTH 10 0
BBX 8 13 1 -3
BITMAP
80
80
80
BC
C2
81
81
81
C2
BC
80
80
80
ENDCHAR
STARTCHAR 00FF
ENCODING 255
SWIDTH 576 0
DWIDTH 8 0
BBX 8 13 0 -3
BITMAP
36
36
00
81
42
42
24
24
18
18
10
10
20
ENDCHAR
STARTCHAR 0100
ENCODING 256
SWIDTH 648 0
DWIDTH 9 0
BBX 9 12 0 0
BITMAP
3E00
0000
0800
1400
1400
1400
2200
2200
7F00
4100
4100
8080
ENDCHAR
STARTCHAR 0101
ENCODING 257
SWIDTH 720 0
DWIDTH 10 0
BBX 8 9 1 0
BITMAP
3E
00
3D
43
81
81
81
43
3D
ENDCHAR
STARTCHAR 0102
ENCODING 258
SWIDTH 648 0
DWIDTH 9 0
BBX 9 13 0 0
BITMAP
2400
1800
0000
0800
1400
1400
1400
2200
2200
7F00
4100
4100
8080
ENDCHAR
STARTCHAR 0103
ENCODING 259
SWIDTH 720 0
DWIDTH 10 0
BBX 8 10 1 0
BITMAP
24
18
00
3D
43
81
81
81
43
3D
ENDCHAR
STARTCHAR 0104
ENCODING 260
SWIDTH 648 0
DWIDTH 9 0
BBX 10 13 0 -3
BITMAP
0800
1400
1400
1400
2200
2200
7F00
4100
4100
8080
0100
0100
00C0
ENDCHAR
STARTCHAR 0105
ENCODING 261
SWIDTH 720 0
DWIDTH 10 0
BBX 9 10 1 -3
BITMAP
3D00
4300
8100
8100
8100
4300
3D00
0200
0200
0180
ENDCHAR
STARTCHAR 0106
ENCODING 262
SWIDTH 792 0
DWIDTH 11 0
BBX 9 13 1 0
BITMAP
0400
0800
0000
1E00
2100
4080
8000
8000
8000
8000
4080
2100
1E00
ENDCHAR
STARTCHAR 0107
ENCODING 263
SWIDTH 648 0
DWIDTH 9 0
BBX 7 10 1 0
BITMAP
08
10
00
3C
42
80
80
80
42
3C
ENDCHAR
STARTCHAR 0108
ENCODING 264
SWIDTH 792 0
DWIDTH 11 0
BBX 9 14 1 0
BITMAP
0800
1400
2200
0000
1E00
2100
4080
8000
8000
8000
8000
4080
2100
1E00
ENDCHAR
STARTCHAR 0109
ENCODING 265
SWIDTH 648 0
DWIDTH 9 0
BBX 7 11 1 0
BITMAP
10
28
44
00
3C
42
80
80
80
42
3C
ENDCHAR
STARTCHAR 010A
ENCODING 266
SWIDTH 792 0
DWIDTH 11 0
BBX 9 13 1 0
BITMAP
1800
1800
0000
1E00
2100
4080
8000
8000
8000
8000
4080
2100
1E00
ENDCHAR
STARTCHAR 010B
ENCODING 267
SWIDTH 648 0
DWIDTH 9 0
BBX 7 10 1 0
BITMAP
30
30
00
3C
42
80
80
80
42
3C
ENDCHAR
STARTCHAR 010C
ENCODING 268
SWIDTH 792 0
DWIDTH 11 0
BBX 9 14 1 0
BITMAP
2200
1400
0800
0000
1E00
2100
4080
8000
8000
8000
8000
4080
2100
1E00
ENDCHAR
STARTCHAR 010D
ENCODING 269
SWIDTH 648 0
DWIDTH 9 0
BBX 7 11 1 0
BITMAP
44
28
10
00
3C
42
80
80
80
42
3C
ENDCHAR
STARTCHAR 010E
ENCODING 270
SWIDTH 720 0
DWIDTH 10 0
BBX 8 14 1 0
BITMAP
44
28
10
00
F8
84
82
81
81
81
81
82
84
F8
ENDCHAR
STARTCHAR 010F
ENCODING 271
SWIDTH 720 0
DWIDTH 10 0
BBX 10 10 1 0
BITMAP
0140
0140
0140
3D40
4300
8100
8100
8100
4300
3D00
ENDCHAR
STARTCHAR 0110
ENCODING 272
SWIDTH 792 0
DWIDTH 11 0
BBX 10 10 0 0
BITMAP
7E00
4100
4080
4040
F840
4040
4040
4080
4100
7E00
ENDCHAR
STARTCHAR 0111
ENCODING 273
SWIDTH 720 0
DWIDTH 10 0
BBX 9 10 1 0
BITMAP
0100
0780
0100
3D00
4300
8100
8100
8100
4300
3D00
ENDCHAR
STARTCHAR 0112
ENCODING 274
SWIDTH 576 0
DWIDTH 8 0
BBX 6 12 1 0
BITMAP
F8
00
FC
80
80
80
FC
80
80
80
80
FC
ENDCHAR
STARTCHAR 0113
ENCODING 275
SWIDTH 648 0
DWIDTH 9 0
BBX 7 10 1 0
BITMAP
7C
00
00
38
44
82
FE
80
42
3C
ENDCHAR
STARTCHAR 0114
ENCODING 276
SWIDTH 576 0
DWIDTH 8 0
BBX 6 13 1 0
BITMAP
48
30
00
FC
80
80
80
FC
80
80
80
80
FC
ENDCHAR
STARTCHAR 0115
ENCODING 277
SWIDTH 648 0
DWIDTH 9 0
BBX 7 10 1 0
BITMAP
24
18
00
38
44
82
FE
80
42
3C
ENDCHAR
STARTCHAR 0116
ENCODING 278
SWIDTH 576 0
DWIDTH 8 0
BBX 6 13 1 0
BITMAP
30
30
00
FC
80
80
80
FC
80
80
80
80
FC
ENDCHAR
STARTCHAR 0117
ENCODING 279
SWIDTH 648 0
DWIDTH 9 0
BBX 7 10 1 0
BITMAP
30
30
00
38
44
82
FE
80
42
3C
ENDCHAR
STARTCHAR 0118
ENCODING 280
SWIDTH 576 0
DWIDTH 8 0
BBX 6 13 1 -3
BITMAP
FC
80
80
80
FC
80
80
80
80
FC
20
20
18
ENDCHAR
STARTCHAR 0119
ENCODING 281
SWIDTH 648 0
DWIDTH 9 0
BBX 7 10 1 -3
BITMAP
38
44
82
FE
80
42
3C
10
10
0C
ENDCHAR
STARTCHAR 011A
ENCODING 282
SWIDTH 576 0
DWIDTH 8 0
BBX 6 14 1 0
BITMAP
88
50
20
00
FC
80
80
80
FC
80
80
80
80
FC
ENDCHAR
STARTCHAR 011B
ENCODING 283
SWIDTH 648 0
DWIDTH 9 0
BBX 7 11 1 0
BITMAP
44
28
10
00
38
44
82
FE
80
42
3C
ENDCHAR
STARTCHAR 011C
ENCODING 284
SWIDTH 864 0
DWIDTH 12 0
BBX 10 14 1 0
BITMAP
0800
1400
2200
0000
1E00
2100
4080
8000
8000
83C0
8040
4080
2080
1F00
ENDCHAR
STARTCHAR 011D
ENCODING 285
SWIDTH 648 0
DWIDTH 9 0
BBX 7 14 1 -3
BITMAP
10
28
44
00
3A
46
82
82
82
46
3A
02
84
78
ENDCHAR
STARTCHAR 011E
ENCODING 286
SWIDTH 864 0
DWIDTH 12 0
BBX 10 13 1 0
BITMAP
1200
0C00
0000
1E00
2100
4080
8000
8000
83C0
8040
4080
2080
1F00
ENDCHAR
STARTCHAR 011F
ENCODING 287
SWIDTH 648 0
DWIDTH 9 0
BBX 7 13 1 -3
BITMAP
48
30
00
3A
46
82
82
82
46
3A
02
84
78
ENDCHAR
STARTCHAR 0120
ENCODING 288
SWIDTH 864 0
DWIDTH 12 0
BBX 10 13 1 0
BITMAP
0C00
0C00
0000
1E00
2100
4080
8000
8000
83C0
8040
4080
2080
1F00
ENDCHAR
STARTCHAR 0121
ENCODING 289
SWIDTH 648 0
DWIDTH 9 0
BBX 7 13 1 -3
BITMAP
30
30
00
3A
46
82
82
82
46
3A
02
84
78
ENDCHAR
STARTCHAR 0122
ENCODING 290
SWIDTH 864 0
DWIDTH 12 0
BBX 10 13 1 -3
BITMAP
1E00
2100
4080
8000
8000
83C0
8040
4080
2080
1F00
0400
0200
0C00
ENDCHAR
STARTCHAR 0123
ENCODING 291
SWIDTH 648 0
DWIDTH 9 0
BBX 7 15 1 -3
BITMAP
10
20
30
30
00
3A
46
82
82
82
46
3A
02
84
78
ENDCHAR
STARTCHAR 0124
ENCODING 292
SWIDTH 720 0
DWIDTH 10 0
BBX 6 14 2 0
BITMAP
10
28
44
00
84
84
84
84
FC
84
84
84
84
84
ENDCHAR
STARTCHAR 0125
ENCODING 293
SWIDTH 648 0
DWIDTH 9 0
BBX 7 14 1 0
BITMAP
10
28
44
00
80
80
80
B8
C4
82
82
82
82
82
ENDCHAR
STARTCHAR 0126
ENCODING 294
SWIDTH 720 0
DWIDTH 10 0
BBX 8 10 1 0
BITMAP
42
FF
42
42
7E
42
42
42
42
42
ENDCHAR
STARTCHAR 0127
ENCODING 295
SWIDTH 648 0
DWIDTH 9 0
BBX 8 10 0 0
BITMAP
40
F8
40
5C
62
41
41
41
41
41
ENDCHAR
STARTCHAR 0128
ENCODING 296
SWIDTH 216 0
DWIDTH 3 0
BBX 5 13 -1 0
BITMAP
68
B0
00
20
20
20
20
20
20
20
20
20
20
ENDCHAR
STARTCHAR 0129
ENCODING 297
SWIDTH 216 0
DWIDTH 3 0
BBX 5 10 -1 0
BITMAP
68
B0
00
20
20
20
20
20
20
20
ENDCHAR
STARTCHAR 012A
ENCODING 298
SWIDTH 216 0
DWIDTH 3 0
BBX 5 12 -1 0
BITMAP
F8
00
20
20
20
20
20
20
20
20
20
20
ENDCHAR
STARTCHAR 012B
ENCODING 299
SWIDTH 216 0
DWIDTH 3 0
BBX 5 10 -1 0
BITMAP
F8
00
00
20
20
20
20
20
20
20
ENDCHAR
STARTCHAR 012C
ENCODING 300
SWIDTH 216 0
DWIDTH 3 0
BBX 4 13 0 0
BITMAP
90
60
00
40
40
40
40
40
40
40
40
40
40
ENDCHAR
STARTCHAR 012D
ENCODING 301
SWIDTH 216 0
DWIDTH 3 0
BBX 4 10 0 0
BITMAP
90
60
00
40
40
40
40
40
40
40
ENDCHAR
STARTCHAR 012E
ENCODING 302
SWIDTH 216 0
DWIDTH 3 0
BBX 3 13 0 -3
BITMAP
40
40
40
40
40
40
40
40
40
40
80
80
60
ENDCHAR
STARTCHAR 012F
ENCODING 303
SWIDTH 216 0
DWIDTH 3 0
BBX 3 13 0 -3
BITMAP
40
40
00
40
40
40
40
40
40
40
80
80
60
ENDCHAR
STARTCHAR 0130
ENCODING 304
SWIDTH 216 0
DWIDTH 3 0
BBX 2 13 0 0
BITMAP
C0
C0
00
40
40
40
40
40
40
40
40
40
40
ENDCHAR
STARTCHAR 0131
ENCODING 305
SWIDTH 216 0
DWIDTH 3 0
BBX 1 7 1 0
BITMAP
80
80
80
80
80
80
80
ENDCHAR
STARTCHAR 0132
ENCODING 306
SWIDTH 720 0
DWIDTH 10 0
BBX 8 10 1 0
BITMAP
81
81
81
81
81
81
81
81
91
8E
ENDCHAR
STARTCHAR 0133
ENCODING 307
SWIDTH 432 0
DWIDTH 6 0
BBX 4 13 1 -3
BITMAP
90
90
00
90
90
90
90
90
90
90
10
10
30
ENDCHAR
STARTCHAR 0134
ENCODING 308
SWIDTH 504 0
DWIDTH 7 0
BBX 6 14 1 0
BITMAP
10
28
44
00
08
08
08
08
08
08
08
08
88
70
ENDCHAR
STARTCHAR 0135
ENCODING 309
SWIDTH 216 0
DWIDTH 3 0
BBX 5 15 -1 -3
BITMAP
20
50
88
00
00
20
20
20
20
20
20
20
20
20
60
ENDCHAR
STARTCHAR 0136
ENCODING 310
SWIDTH 576 0
DWIDTH 8 0
BBX 6 13 1 -3
BITMAP
84
98
A0
C0
C0
A0
90
90
88
84
30
10
60
ENDCHAR
STARTCHAR 0137
ENCODING 311
SWIDTH 504 0
DWIDTH 7 0
BBX 5 13 1 -3
BITMAP
80
80
80
88
B0
C0
C0
A0
90
88
60
20
C0
ENDCHAR
STARTCHAR 0138
ENCODING 312
SWIDTH 504 0
DWIDTH 7 0
BBX 5 7 1 0
BITMAP
88
B0
C0
C0
A0
90
88
ENDCHAR
STARTCHAR 0139
ENCODING 313
SWIDTH 432 0
DWIDTH 6 0
BBX 5 13 1 0
BITMAP
20
40
00
80
80
80
80
80
80
80
80
80
F8
ENDCHAR
STARTCHAR 013A
ENCODING 314
SWIDTH 216 0
DWIDTH 3 0
BBX 2 13 1 0
BITMAP
40
80
00
80
80
80
80
80
80
80
80
80
80
ENDCHAR
STARTCHAR 013B
ENCODING 315
SWIDTH 432 0
DWIDTH 6 0
BBX 5 13 1 -3
BITMAP
80
80
80
80
80
80
80
80
80
F8
30
10
60
ENDCHAR
STARTCHAR 013C
ENCODING 316
SWIDTH 216 0
DWIDTH 3 0
BBX 2 11 0 -1
BITMAP
40
40
40
40
40
40
40
40
40
40
C0
ENDCHAR
STARTCHAR 013D
ENCODING 317
SWIDTH 432 0
DWIDTH 6 0
BBX 5 10 1 0
BITMAP
B0
B0
90
A0
80
80
80
80
80
F8
ENDCHAR
STARTCHAR 013E
ENCODING 318
SWIDTH 216 0
DWIDTH 3 0
BBX 3 10 1 0
BITMAP
A0
A0
A0
A0
80
80
80
80
80
80
ENDCHAR
STARTCHAR 013F
ENCODING 319
SWIDTH 432 0
DWIDTH 6 0
BBX 5 10 1 0
BITMAP
80
80
80
80
B0
B0
80
80
80
F8
ENDCHAR
STARTCHAR 0140
ENCODING 320
SWIDTH 288 0
DWIDTH 4 0
BBX 3 10 1 0
BITMAP
80
80
80
80
E0
E0
80
80
80
80
ENDCHAR
STARTCHAR 0141
ENCODING 321
SWIDTH 504 0
DWIDTH 7 0
BBX 6 10 1 0
BITMAP
40
40
40
50
60
40
C0
40
40
7C
ENDCHAR
STARTCHAR 0142
ENCODING 322
SWIDTH 288 0
DWIDTH 4 0
BBX 3 10 0 0
BITMAP
40
40
40
60
40
C0
40
40
40
40
ENDCHAR
STARTCHAR 0143
ENCODING 323
SWIDTH 720 0
DWIDTH 10 0
BBX 8 13 1 0
BITMAP
10
20
00
81
81
C1
A1
91
89
85
83
81
81
ENDCHAR
STARTCHAR 0144
ENCODING 324
SWIDTH 648 0
DWIDTH 9 0
BBX 7 10 1 0
BITMAP
10
20
00
B8
C4
82
82
82
82
82
ENDCHAR
STARTCHAR 0145
ENCODING 325
SWIDTH 720 0
DWIDTH 10 0
BBX 8 13 1 -3
BITMAP
81
81
C1
A1
91
89
85
83
81
81
18
08
30
ENDCHAR
STARTCHAR 0146
ENCODING 326
SWIDTH 648 0
DWIDTH 9 0
BBX 7 10 1 -3
BITMAP
B8
C4
82
82
82
82
82
18
08
30
ENDCHAR
STARTCHAR 0147
ENCODING 327
SWIDTH 720 0
DWIDTH 10 0
BBX 8 14 1 0
BITMAP
44
28
10
00
81
81
C1
A1
91
89
85
83
81
81
ENDCHAR
STARTCHAR 0148
ENCODING 328
SWIDTH 648 0
DWIDTH 9 0
BBX 7 11 1 0
BITMAP
44
28
10
00
B8
C4
82
82
82
82
82
ENDCHAR
STARTCHAR 0149
ENCODING 329
SWIDTH 648 0
DWIDTH 9 0
BBX 9 10 -1 0
BITMAP
C000
C000
4000
AE00
3100
2080
2080
2080
2080
2080
ENDCHAR
STARTCHAR 014A
ENCODING 330
SWIDTH 792 0
DWIDTH 11 0
BBX 9 10 1 0
BITMAP
BC00
C300
8100
8080
8080
8080
8080
8100
A300
9C00
ENDCHAR
STARTCHAR 014B
ENCODING 331
SWIDTH 648 0
DWIDTH 9 0
BBX 7 10 1 -3
BITMAP
B8
C4
82
82
82
82
82
02
02
04
ENDCHAR
STARTCHAR 014C
ENCODING 332
SWIDTH 864 0
DWIDTH 12 0
BBX 10 12 1 0
BITMAP
3E00
0000
1E00
2100
4080
8040
8040
8040
8040
4080
2100
1E00
ENDCHAR
STARTCHAR 014D
ENCODING 333
SWIDTH 648 0
DWIDTH 9 0
BBX 7 10 1 0
BITMAP
7C
00
00
38
44
82
82
82
44
38
ENDCHAR
STARTCHAR 014E
ENCODING 334
SWIDTH 864 0
DWIDTH 12 0
BBX 10 13 1 0
BITMAP
1200
0C00
0000
1E00
2100
4080
8040
8040
8040
8040
4080
2100
1E00
ENDCHAR
STARTCHAR 014F
ENCODING 335
SWIDTH 648 0
DWIDTH 9 0
BBX 7 10 1 0
BITMAP
24
18
00
38
44
82
82
82
44
38
ENDCHAR
STARTCHAR 0150
ENCODING 336
SWIDTH 864 0
DWIDTH 12 0
BBX 10 13 1 0
BITMAP
0900
1200
0000
1E00
2100
4080
8040
8040
8040
8040
4080
2100
1E00
ENDCHAR
STARTCHAR 0151
ENCODING 337
SWIDTH 648 0
DWIDTH 9 0
BBX 7 10 1 0
BITMAP
24
48
00
38
44
82
82
82
44
38
ENDCHAR
STARTCHAR 0152
ENCODING 338
SWIDTH 1224 0
DWIDTH 17 0
BBX 15 10 1 0
BITMAP
1E7E
2140
40C0
8040
807E
8040
8040
40C0
2140
1E7E
ENDCHAR
STARTCHAR 0153
ENCODING 339
SWIDTH 1152 0
DWIDTH 16 0
BBX 14 7 1 0
BITMAP
3C70
4288
8104
81FC
8100
4384
3C78
ENDCHAR
STARTCHAR 0154
ENCODING 340
SWIDTH 648 0
DWIDTH 9 0
BBX 7 13 1 0
BITMAP
10
20
00
FC
82
82
82
FC
A0
90
88
84
82
ENDCHAR
STARTCHAR 0155
ENCODING 341
SWIDTH 288 0
DWIDTH 4 0
BBX 3 10 1 0
BITMAP
40
80
00
A0
C0
80
80
80
80
80
ENDCHAR
STARTCHAR 0156
ENCODING 342
SWIDTH 648 0
DWIDTH 9 0
BBX 7 13 1 -3
BITMAP
FC
82
82
82
FC
A0
90
88
84
82
18
08
30
ENDCHAR
STARTCHAR 0157
ENCODING 343
SWIDTH 288 0
DWIDTH 4 0
BBX 3 10 1 -3
BITMAP
A0
C0
80
80
80
80
80
60
20
C0
ENDCHAR
STARTCHAR 0158
ENCODING 344
SWIDTH 648 0
DWIDTH 9 0
BBX 7 14 1 0
BITMAP
44
28
10
00
FC
82
82
82
FC
A0
90
88
84
82
ENDCHAR
STARTCHAR 0159
ENCODING 345
SWIDTH 288 0
DWIDTH 4 0
BBX 5 12 0 0
BITMAP
88
50
20
00
00
50
60
40
40
40
40
40
ENDCHAR
STARTCHAR 015A
ENCODING 346
SWIDTH 504 0
DWIDTH 7 0
BBX 6 13 0 0
BITMAP
10
20
00
38
44
40
20
10
08
04
84
44
78
ENDCHAR
STARTCHAR 015B
ENCODING 347
SWIDTH 360 0
DWIDTH 5 0
BBX 4 10 0 0
BITMAP
40
80
00
60
90
80
60
10
90
60
ENDCHAR
STARTCHAR 015C
ENCODING 348
SWIDTH 504 0
DWIDTH 7 0
BBX 6 14 0 0
BITMAP
10
28
44
00
38
44
40
20
10
08
04
84
44
78
ENDCHAR
STARTCHAR 015D
ENCODING 349
SWIDTH 360 0
DWIDTH 5 0
BBX 5 11 -1 0
BITMAP
20
50
88
00
30
48
40
30
08
48
30
ENDCHAR
STARTCHAR 015E
ENCODING 350
SWIDTH 504 0
DWIDTH 7 0
BBX 6 13 0 -3
BITMAP
38
44
40
20
10
08
04
84
44
78
20
10
60
ENDCHAR
STARTCHAR 015F
ENCODING 351
SWIDTH 360 0
DWIDTH 5 0
BBX 4 10 0 -3
BITMAP
60
90
80
60
10
90
60
40
20
C0
ENDCHAR
STARTCHAR 0160
ENCODING 352
SWIDTH 504 0
DWIDTH 7 0
BBX 6 14 0 0
BITMAP
88
50
20
00
38
44
40
20
10
08
04
84
44
78
ENDCHAR
STARTCHAR 0161
ENCODING 353
SWIDTH 360 0
DWIDTH 5 0
BBX 5 11 -1 0
BITMAP
88
50
20
00
30
48
40
30
08
48
30
ENDCHAR
STARTCHAR 0162
ENCODING 354
SWIDTH 360 0
DWIDTH 5 0
BBX 5 13 0 -3
BITMAP
F8
20
20
20
20
20
20
20
20
20
00
20
20
ENDCHAR
STARTCHAR 0163
ENCODING 355
SWIDTH 360 0
DWIDTH 5 0
BBX 3 13 1 -3
BITMAP
40
40
40
E0
40
40
40
40
40
40
00
40
40
ENDCHAR
STARTCHAR 0164
ENCODING 356
SWIDTH 360 0
DWIDTH 5 0
BBX 5 14 0 0
BITMAP
88
50
20
00
F8
20
20
20
20
20
20
20
20
20
ENDCHAR
STARTCHAR 0165
ENCODING 357
SWIDTH 360 0
DWIDTH 5 0
BBX 4 10 1 0
BITMAP
50
50
40
E0
40
40
40
40
40
40
ENDCHAR
STARTCHAR 0166
ENCODING 358
SWIDTH 432 0
DWIDTH 6 0
BBX 5 10 0 0
BITMAP
F8
20
20
20
20
F8
20
20
20
20
ENDCHAR
STARTCHAR 0167
ENCODING 359
SWIDTH 360 0
DWIDTH 5 0
BBX 3 10 1 0
BITMAP
40
40
40
E0
40
40
E0
40
40
40
ENDCHAR
STARTCHAR 0168
ENCODING 360
SWIDTH 648 0
DWIDTH 9 0
BBX 7 13 1 0
BITMAP
34
58
00
82
82
82
82
82
82
82
82
82
7C
ENDCHAR
STARTCHAR 0169
ENCODING 361
SWIDTH 648 0
DWIDTH 9 0
BBX 7 10 1 0
BITMAP
34
58
00
82
82
82
82
82
44
38
ENDCHAR
STARTCHAR 016A
ENCODING 362
SWIDTH 648 0
DWIDTH 9 0
BBX 7 12 1 0
BITMAP
7C
00
82
82
82
82
82
82
82
82
82
7C
ENDCHAR
STARTCHAR 016B
ENCODING 363
SWIDTH 648 0
DWIDTH 9 0
BBX 7 10 1 0
BITMAP
7C
00
00
82
82
82
82
82
44
38
ENDCHAR
STARTCHAR 016C
ENCODING 364
SWIDTH 648 0
DWIDTH 9 0
BBX 7 13 1 0
BITMAP
24
18
00
82
82
82
82
82
82
82
82
82
7C
ENDCHAR
STARTCHAR 016D
ENCODING 365
SWIDTH 648 0
DWIDTH 9 0
BBX 7 10 1 0
BITMAP
24
18
00
82
82
82
82
82
44
38
ENDCHAR
STARTCHAR 016E
ENCODING 366
SWIDTH 648 0
DWIDTH 9 0
BBX 7 14 1 0
BITMAP
10
28
10
00
82
82
82
82
82
82
82
82
82
7C
ENDCHAR
STARTCHAR 016F
ENCODING 367
SWIDTH 648 0
DWIDTH 9 0
BBX 7 11 1 0
BITMAP
10
28
10
00
82
82
82
82
82
44
38
ENDCHAR
STARTCHAR 0170
ENCODING 368
SWIDTH 648 0
DWIDTH 9 0
BBX 7 13 1 0
BITMAP
24
48
00
82
82
82
82
82
82
82
82
82
7C
ENDCHAR
STARTCHAR 0171
ENCODING 369
SWIDTH 648 0
DWIDTH 9 0
BBX 7 10 1 0
BITMAP
24
48
00
82
82
82
82
82
44
38
ENDCHAR
STARTCHAR 0172
ENCODING 370
SWIDTH 648 0
DWIDTH 9 0
BBX 7 13 1 -3
BITMAP
82
82
82
82
82
82
82
82
82
7C
10
10
0C
ENDCHAR
STARTCHAR 0173
ENCODING 371
SWIDTH 648 0
DWIDTH 9 0
BBX 7 10 1 -3
BITMAP
82
82
82
82
82
44
38
20
20
18
ENDCHAR
STARTCHAR 0174
ENCODING 372
SWIDTH 1080 0
DWIDTH 15 0
BBX 13 14 1 0
BITMAP
0200
0500
0880
0000
8208
8208
4510
4510
4510
28A0
28A0
28A0
1040
1040
ENDCHAR
STARTCHAR 0175
ENCODING 373
SWIDTH 864 0
DWIDTH 12 0
BBX 11 11 0 0
BITMAP
0400
0A00
1100
0000
8420
4440
4A40
2A80
2A80
2A80
1100
ENDCHAR
STARTCHAR 0176
ENCODING 374
SWIDTH 504 0
DWIDTH 7 0
BBX 7 14 0 0
BITMAP
10
28
44
00
82
44
44
28
10
10
10
10
10
10
ENDCHAR
STARTCHAR 0177
ENCODING 375
SWIDTH 576 0
DWIDTH 8 0
BBX 8 14 0 -3
BITMAP
08
14
22
00
81
42
42
24
24
18
18
10
10
20
ENDCHAR
STARTCHAR 0178
ENCODING 376
SWIDTH 504 0
DWIDTH 7 0
BBX 7 13 0 0
BITMAP
6C
6C
00
82
44
44
28
10
10
10
10
10
10
ENDCHAR
STARTCHAR 0179
ENCODING 377
SWIDTH 504 0
DWIDTH 7 0
BBX 6 13 0 0
BITMAP
20
40
00
FC
08
08
10
10
20
20
40
40
FC
ENDCHAR
STARTCHAR 017A
ENCODING 378
SWIDTH 432 0
DWIDTH 6 0
BBX 6 10 0 0
BITMAP
20
40
00
FC
08
10
20
20
40
FC
ENDCHAR
STARTCHAR 017B
ENCODING 379
SWIDTH 504 0
DWIDTH 7 0
BBX 6 13 0 0
BITMAP
30
30
00
FC
08
08
10
10
20
20
40
40
FC
ENDCHAR
STARTCHAR 017C
ENCODING 380
SWIDTH 432 0
DWIDTH 6 0
BBX 6 10 0 0
BITMAP
30
30
00
FC
08
10
20
20
40
FC
ENDCHAR
STARTCHAR 017D
ENCODING 381
SWIDTH 504 0
DWIDTH 7 0
BBX 6 14 0 0
BITMAP
88
50
20
00
FC
08
08
10
10
20
20
40
40
FC
ENDCHAR
STARTCHAR 017E
ENCODING 382
SWIDTH 432 0
DWIDTH 6 0
BBX 6 11 0 0
BITMAP
88
50
20
00
FC
08
10
20
20
40
FC
ENDCHAR
STARTCHAR 017F
ENCODING 383
SWIDTH 216 0
DWIDTH 3 0
BBX 3 10 1 0
BITMAP
60
80
80
80
80
80
80
80
80
80
ENDCHAR
STARTCHAR 0192
ENCODING 402
SWIDTH 576 0
DWIDTH 8 0
BBX 6 13 0 -3
BITMAP
1C
10
10
10
38
10
20
20
20
20
20
20
C0
ENDCHAR
STARTCHAR 01FA
ENCODING 506
SWIDTH 648 0
DWIDTH 9 0
BBX 9 16 0 0
BITMAP
0800
1000
0000
0000
0800
1400
0800
1400
1400
1400
2200
2200
7F00
4100
4100
8080
ENDCHAR
STARTCHAR 01FB
ENCODING 507
SWIDTH 720 0
DWIDTH 10 0
BBX 8 16 1 0
BITMAP
08
10
00
00
08
14
08
00
00
3D
43
81
81
81
43
3D
ENDCHAR
STARTCHAR 01FC
ENCODING 508
SWIDTH 1008 0
DWIDTH 14 0
BBX 13 13 0 0
BITMAP
0040
0080
0000
03F8
0300
0500
0900
09F8
1100
3F00
2100
4100
81F8
ENDCHAR
STARTCHAR 01FD
ENCODING 509
SWIDTH 1152 0
DWIDTH 16 0
BBX 14 10 1 0
BITMAP
0100
0200
0000
3D70
4388
8104
81FC
8100
4384
3D78
ENDCHAR
STARTCHAR 01FE
ENCODING 510
SWIDTH 864 0
DWIDTH 12 0
BBX 10 13 1 0
BITMAP
0400
0800
0000
1E40
2180
4180
8240
8440
8840
9040
6080
6100
9E00
ENDCHAR
STARTCHAR 01FF
ENCODING 511
SWIDTH 648 0
DWIDTH 9 0
BBX 7 10 1 0
BITMAP
10
20
00
3A
44
8A
92
A2
44
B8
ENDCHAR
STARTCHAR 02C6
ENCODING 710
SWIDTH 504 0
DWIDTH 7 0
BBX 5 3 1 9
BITMAP
20
50
88
ENDCHAR
STARTCHAR 02C7
ENCODING 711
SWIDTH 504 0
DWIDTH 7 0
BBX 5 3 1 9
BITMAP
88
50
20
ENDCHAR
STARTCHAR 02C9
ENCODING 713
SWIDTH 504 0
DWIDTH 7 0
BBX 5 1 1 9
BITMAP
F8
ENDCHAR
STARTCHAR 02D8
ENCODING 728
SWIDTH 432 0
DWIDTH 6 0
BBX 4 2 1 9
BITMAP
90
60
ENDCHAR
STARTCHAR 02D9
ENCODING 729
SWIDTH 216 0
DWIDTH 3 0
BBX 2 2 1 9
BITMAP
C0
C0
ENDCHAR
STARTCHAR 02DA
ENCODING 730
SWIDTH 360 0
DWIDTH 5 0
BBX 3 3 1 9
BITMAP
40
A0
40
ENDCHAR
STARTCHAR 02DB
ENCODING 731
SWIDTH 288 0
DWIDTH 4 0
BBX 3 3 1 -3
BITMAP
80
80
60
ENDCHAR
STARTCHAR 02DC
ENCODING 732
SWIDTH 432 0
DWIDTH 6 0
BBX 5 2 0 9
BITMAP
68
B0
ENDCHAR
STARTCHAR 02DD
ENCODING 733
SWIDTH 576 0
DWIDTH 8 0
BBX 5 2 2 9
BITMAP
48
90
ENDCHAR
STARTCHAR 037E
ENCODING 894
SWIDTH 288 0
DWIDTH 4 0
BBX 2 8 1 -1
BITMAP
C0
C0
00
00
00
40
80
80
ENDCHAR
STARTCHAR 0384
ENCODING 900
SWIDTH 360 0
DWIDTH 5 0
BBX 1 2 2 9
BITMAP
80
80
ENDCHAR
STARTCHAR 0385
ENCODING 901
SWIDTH 360 0
DWIDTH 5 0
BBX 5 2 0 9
BITMAP
20
A8
ENDCHAR
STARTCHAR 0386
ENCODING 902
SWIDTH 648 0
DWIDTH 9 0
BBX 9 10 0 0
BITMAP
4800
5400
1400
1400
2200
2200
7F00
4100
4100
8080
ENDCHAR
STARTCHAR 0387
ENCODING 903
SWIDTH 288 0
DWIDTH 4 0
BBX 2 2 1 5
BITMAP
C0
C0
ENDCHAR
STARTCHAR 0388
ENCODING 904
SWIDTH 576 0
DWIDTH 8 0
BBX 10 10 -1 0
BITMAP
8FC0
8800
0800
0800
0FC0
0800
0800
0800
0800
0FC0
ENDCHAR
STARTCHAR 0389
ENCODING 905
SWIDTH 720 0
DWIDTH 10 0
BBX 9 10 -1 0
BITMAP
9080
9080
1080
1080
1F80
1080
1080
1080
1080
1080
ENDCHAR
STARTCHAR 038A
ENCODING 906
SWIDTH 288 0
DWIDTH 4 0
BBX 4 10 -1 0
BITMAP
90
90
10
10
10
10
10
10
10
10
ENDCHAR
STARTCHAR 038C
ENCODING 908
SWIDTH 864 0
DWIDTH 12 0
BBX 12 10 -1 0
BITMAP
8780
8840
1020
2010
2010
2010
2010
1020
0840
0780
ENDCHAR
STARTCHAR 038E
ENCODING 910
SWIDTH 648 0
DWIDTH 9 0
BBX 9 10 -1 0
BITMAP
A080
9100
1100
0A00
0400
0400
0400
0400
0400
0400
ENDCHAR
STARTCHAR 038F
ENCODING 911
SWIDTH 864 0
DWIDTH 12 0
BBX 12 10 -1 0
BITMAP
8780
8840
1020
2010
2010
2010
2010
1020
0840
3CF0
ENDCHAR
STARTCHAR 0390
ENCODING 912
SWIDTH 216 0
DWIDTH 3 0
BBX 3 11 1 0
BITMAP
80
A0
00
00
80
80
80
80
80
80
80
ENDCHAR
STARTCHAR 0391
ENCODING 913
SWIDTH 648 0
DWIDTH 9 0
BBX 9 10 0 0
BITMAP
0800
1400
1400
1400
2200
2200
7F00
4100
4100
8080
ENDCHAR
STARTCHAR 0392
ENCODING 914
SWIDTH 576 0
DWIDTH 8 0
BBX 6 10 1 0
BITMAP
F0
88
88
88
F8
84
84
84
84
F8
ENDCHAR
STARTCHAR 0393
ENCODING 915
SWIDTH 432 0
DWIDTH 6 0
BBX 4 10 2 0
BITMAP
F0
80
80
80
80
80
80
80
80
80
ENDCHAR
STARTCHAR 0394
ENCODING 916
SWIDTH 720 0
DWIDTH 10 0
BBX 10 10 0 0
BITMAP
0C00
0C00
1200
1200
2100
2100
4080
4080
C040
FFC0
ENDCHAR
STARTCHAR 0395
ENCODING 917
SWIDTH 576 0
DWIDTH 8 0
BBX 6 10 1 0
BITMAP
FC
80
80
80
FC
80
80
80
80
FC
ENDCHAR
STARTCHAR 0396
ENCODING 918
SWIDTH 504 0
DWIDTH 7 0
BBX 6 10 0 0
BITMAP
FC
08
08
10
10
20
20
40
40
FC
ENDCHAR
STARTCHAR 0397
ENCODING 919
SWIDTH 720 0
DWIDTH 10 0
BBX 6 10 2 0
BITMAP
84
84
84
84
FC
84
84
84
84
84
ENDCHAR
STARTCHAR 0398
ENCODING 920
SWIDTH 864 0
DWIDTH 12 0
BBX 10 10 1 0
BITMAP
1E00
2100
4080
8040
9E40
8040
8040
4080
2100
1E00
ENDCHAR
STARTCHAR 0399
ENCODING 921
SWIDTH 216 0
DWIDTH 3 0
BBX 1 10 1 0
BITMAP
80
80
80
80
80
80
80
80
80
80
ENDCHAR
STARTCHAR 039A
ENCODING 922
SWIDTH 576 0
DWIDTH 8 0
BBX 6 10 1 0
BITMAP
84
98
A0
C0
C0
A0
90
90
88
84
ENDCHAR
STARTCHAR 039B
ENCODING 923
SWIDTH 648 0
DWIDTH 9 0
BBX 9 10 0 0
BITMAP
0800
1400
1400
1400
2200
2200
4100
4100
4100
8080
ENDCHAR
STARTCHAR 039C
ENCODING 924
SWIDTH 936 0
DWIDTH 13 0
BBX 11 10 1 0
BITMAP
4040
4040
A0A0
A0A0
9120
9120
9120
8A20
8A20
8420
ENDCHAR
STARTCHAR 039D
ENCODING 925
SWIDTH 720 0
DWIDTH 10 0
BBX 8 10 1 0
BITMAP
81
81
C1
A1
91
89
85
83
81
81
ENDCHAR
STARTCHAR 039E
ENCODING 926
SWIDTH 504 0
DWIDTH 7 0
BBX 5 10 1 0
BITMAP
F8
00
00
00
F8
00
00
00
00
F8
ENDCHAR
STARTCHAR 039F
ENCODING 927
SWIDTH 864 0
DWIDTH 12 0
BBX 10 10 1 0
BITMAP
1E00
2100
4080
8040
8040
8040
8040
4080
2100
1E00
ENDCHAR
STARTCHAR 03A0
ENCODING 928
SWIDTH 720 0
DWIDTH 10 0
BBX 6 10 2 0
BITMAP
FC
84
84
84
84
84
84
84
84
84
ENDCHAR
STARTCHAR 03A1
ENCODING 929
SWIDTH 576 0
DWIDTH 8 0
BBX 6 10 1 0
BITMAP
F8
84
84
84
F8
80
80
80
80
80
ENDCHAR
STARTCHAR 03A3
ENCODING 931
SWIDTH 504 0
DWIDTH 7 0
BBX 5 10 1 0
BITMAP
F8
80
40
40
20
20
40
40
80
F8
ENDCHAR
STARTCHAR 03A4
ENCODING 932
SWIDTH 360 0
DWIDTH 5 0
BBX 5 10 0 0
BITMAP
F8
20
20
20
20
20
20
20
20
20
ENDCHAR
STARTCHAR 03A5
ENCODING 933
SWIDTH 504 0
DWIDTH 7 0
BBX 7 10 0 0
BITMAP
82
44
44
28
10
10
10
10
10
10
ENDCHAR
STARTCHAR 03A6
ENCODING 934
SWIDTH 792 0
DWIDTH 11 0
BBX 9 10 1 0
BITMAP
0800
3E00
4900
8880
8880
8880
8880
4900
3E00
0800
ENDCHAR
STARTCHAR 03A7
ENCODING 935
SWIDTH 648 0
DWIDTH 9 0
BBX 7 10 1 0
BITMAP
82
44
44
28
10
10
28
44
44
82
ENDCHAR
STARTCHAR 03A8
ENCODING 936
SWIDTH 792 0
DWIDTH 11 0
BBX 9 10 1 0
BITMAP
8880
8880
8880
8880
8880
8880
4900
3E00
0800
0800
ENDCHAR
STARTCHAR 03A9
ENCODING 937
SWIDTH 864 0
DWIDTH 12 0
BBX 10 10 1 0
BITMAP
1E00
2100
4080
8040
8040
8040
8040
4080
2100
F3C0
ENDCHAR
STARTCHAR 03AA
ENCODING 938
SWIDTH 216 0
DWIDTH 3 0
BBX 5 13 -1 0
BITMAP
D8
D8
00
20
20
20
20
20
20
20
20
20
20
ENDCHAR
STARTCHAR 03AB
ENCODING 939
SWIDTH 504 0
DWIDTH 7 0
BBX 7 13 0 0
BITMAP
6C
6C
00
82
44
44
28
10
10
10
10
10
10
ENDCHAR
STARTCHAR 03AC
ENCODING 940
SWIDTH 720 0
DWIDTH 10 0
BBX 8 11 1 0
BITMAP
08
08
00
00
3D
43
81
81
81
43
3D
ENDCHAR
STARTCHAR 03AD
ENCODING 941
SWIDTH 432 0
DWIDTH 6 0
BBX 4 11 1 0
BITMAP
20
20
00
00
70
80
80
60
80
90
60
ENDCHAR
STARTCHAR 03AE
ENCODING 942
SWIDTH 648 0
DWIDTH 9 0
BBX 7 14 1 -3
BITMAP
10
10
00
00
B8
C4
82
82
82
82
82
02
02
02
ENDCHAR
STARTCHAR 03AF
ENCODING 943
SWIDTH 216 0
DWIDTH 3 0
BBX 1 11 1 0
BITMAP
80
80
00
00
80
80
80
80
80
80
80
ENDCHAR
STARTCHAR 03B0
ENCODING 944
SWIDTH 576 0
DWIDTH 8 0
BBX 6 11 1 0
BITMAP
20
A8
00
00
88
84
84
84
84
48
30
ENDCHAR
STARTCHAR 03B1
ENCODING 945
SWIDTH 720 0
DWIDTH 10 0
BBX 8 7 1 0
BITMAP
3D
43
81
81
81
43
3D
ENDCHAR
STARTCHAR 03B2
ENCODING 946
SWIDTH 576 0
DWIDTH 8 0
BBX 6 13 1 -3
BITMAP
70
88
88
88
B0
88
84
84
88
F0
80
80
80
ENDCHAR
STARTCHAR 03B3
ENCODING 947
SWIDTH 576 0
DWIDTH 8 0
BBX 7 10 0 -3
BITMAP
82
44
44
28
28
10
10
10
10
10
ENDCHAR
STARTCHAR 03B4
ENCODING 948
SWIDTH 576 0
DWIDTH 8 0
BBX 6 10 1 0
BITMAP
38
40
40
20
30
48
84
84
48
30
ENDCHAR
STARTCHAR 03B5
ENCODING 949
SWIDTH 432 0
DWIDTH 6 0
BBX 4 7 1 0
BITMAP
70
80
80
60
80
90
60
ENDCHAR
STARTCHAR 03B6
ENCODING 950
SWIDTH 504 0
DWIDTH 7 0
BBX 6 13 1 -3
BITMAP
7C
08
10
20
40
80
80
80
80
78
04
04
38
ENDCHAR
STARTCHAR 03B7
ENCODING 951
SWIDTH 648 0
DWIDTH 9 0
BBX 7 10 1 -3
BITMAP
B8
C4
82
82
82
82
82
02
02
02
ENDCHAR
STARTCHAR 03B8
ENCODING 952
SWIDTH 648 0
DWIDTH 9 0
BBX 7 10 1 0
BITMAP
38
44
82
82
FE
82
82
82
44
38
ENDCHAR
STARTCHAR 03B9
ENCODING 953
SWIDTH 216 0
DWIDTH 3 0
BBX 1 7 1 0
BITMAP
80
80
80
80
80
80
80
ENDCHAR
STARTCHAR 03BA
ENCODING 954
SWIDTH 504 0
DWIDTH 7 0
BBX 5 7 1 0
BITMAP
88
B0
C0
C0
A0
90
88
ENDCHAR
STARTCHAR 03BB
ENCODING 955
SWIDTH 576 0
DWIDTH 8 0
BBX 8 10 0 0
BITMAP
20
10
10
08
18
24
24
42
42
81
ENDCHAR
STARTCHAR 03BC
ENCODING 956
SWIDTH 648 0
DWIDTH 9 0
BBX 7 10 1 -3
BITMAP
82
82
82
82
82
C6
BA
80
80
80
ENDCHAR
STARTCHAR 03BD
ENCODING 957
SWIDTH 576 0
DWIDTH 8 0
BBX 7 7 0 0
BITMAP
82
44
44
2C
28
28
10
ENDCHAR
STARTCHAR 03BE
ENCODING 958
SWIDTH 504 0
DWIDTH 7 0
BBX 6 13 1 -3
BITMAP
3C
40
40
40
38
40
80
80
40
38
04
04
38
ENDCHAR
STARTCHAR 03BF
ENCODING 959
SWIDTH 648 0
DWIDTH 9 0
BBX 7 7 1 0
BITMAP
38
44
82
82
82
44
38
ENDCHAR
STARTCHAR 03C0
ENCODING 960
SWIDTH 648 0
DWIDTH 9 0
BBX 7 7 1 0
BITMAP
FE
44
44
44
44
44
44
ENDCHAR
STARTCHAR 03C1
ENCODING 961
SWIDTH 648 0
DWIDTH 9 0
BBX 7 10 1 -3
BITMAP
38
44
82
82
82
C4
B8
80
80
80
ENDCHAR
STARTCHAR 03C2
ENCODING 962
SWIDTH 576 0
DWIDTH 8 0
BBX 7 10 1 -3
BITMAP
3C
42
80
80
80
40
38
04
04
18
ENDCHAR
STARTCHAR 03C3
ENCODING 963
SWIDTH 720 0
DWIDTH 10 0
BBX 8 7 1 0
BITMAP
3F
44
82
82
82
44
38
ENDCHAR
STARTCHAR 03C4
ENCODING 964
SWIDTH 360 0
DWIDTH 5 0
BBX 3 7 1 0
BITMAP
E0
40
40
40
40
40
40
ENDCHAR
STARTCHAR 03C5
ENCODING 965
SWIDTH 576 0
DWIDTH 8 0
BBX 6 7 1 0
BITMAP
88
84
84
84
84
48
30
ENDCHAR
STARTCHAR 03C6
ENCODING 966
SWIDTH 792 0
DWIDTH 11 0
BBX 9 10 1 -3
BITMAP
2E00
4900
8880
8880
8880
4900
3E00
0800
0800
0800
ENDCHAR
STARTCHAR 03C7
ENCODING 967
SWIDTH 504 0
DWIDTH 7 0
BBX 7 10 0 -3
BITMAP
82
44
44
28
10
10
28
44
44
82
ENDCHAR
STARTCHAR 03C8
ENCODING 968
SWIDTH 720 0
DWIDTH 10 0
BBX 8 10 1 -3
BITMAP
91
91
91
91
91
92
7C
10
10
10
ENDCHAR
STARTCHAR 03C9
ENCODING 969
SWIDTH 864 0
DWIDTH 12 0
BBX 10 7 1 0
BITMAP
3300
4080
8040
8840
8840
4880
3700
ENDCHAR
STARTCHAR 03CA
ENCODING 970
SWIDTH 216 0
DWIDTH 3 0
BBX 5 10 -1 0
BITMAP
D8
D8
00
20
20
20
20
20
20
20
ENDCHAR
STARTCHAR 03CB
ENCODING 971
SWIDTH 576 0
DWIDTH 8 0
BBX 6 11 1 0
BITMAP
D8
D8
00
00
88
84
84
84
84
48
30
ENDCHAR
STARTCHAR 03CC
ENCODING 972
SWIDTH 648 0
DWIDTH 9 0
BBX 7 11 1 0
BITMAP
10
10
00
00
38
44
82
82
82
44
38
ENDCHAR
STARTCHAR 03CD
ENCODING 973
SWIDTH 576 0
DWIDTH 8 0
BBX 6 11 1 0
BITMAP
20
20
00
00
88
84
84
84
84
48
30
ENDCHAR
STARTCHAR 03CE
ENCODING 974
SWIDTH 864 0
DWIDTH 12 0
BBX 10 11 1 0
BITMAP
0400
0400
0000
0000
3300
4080
8040
8840
8840
4880
3700
ENDCHAR
STARTCHAR 0401
ENCODING 1025
SWIDTH 576 0
DWIDTH 8 0
BBX 6 13 1 0
BITMAP
D8
D8
00
FC
80
80
80
FC
80
80
80
80
FC
ENDCHAR
STARTCHAR 0402
ENCODING 1026
SWIDTH 648 0
DWIDTH 9 0
BBX 8 10 0 0
BITMAP
F8
20
20
20
3E
21
21
21
21
26
ENDCHAR
STARTCHAR 0403
ENCODING 1027
SWIDTH 432 0
DWIDTH 6 0
BBX 4 13 2 0
BITMAP
20
40
00
F0
80
80
80
80
80
80
80
80
80
ENDCHAR
STARTCHAR 0404
ENCODING 1028
SWIDTH 792 0
DWIDTH 11 0
BBX 9 10 1 0
BITMAP
1E00
2180
4080
8000
FC00
8000
8000
4080
2080
1F00
ENDCHAR
STARTCHAR 0405
ENCODING 1029
SWIDTH 504 0
DWIDTH 7 0
BBX 6 10 0 0
BITMAP
38
44
40
20
10
08
04
84
44
78
ENDCHAR
STARTCHAR 0406
ENCODING 1030
SWIDTH 216 0
DWIDTH 3 0
BBX 1 10 1 0
BITMAP
80
80
80
80
80
80
80
80
80
80
ENDCHAR
STARTCHAR 0407
ENCODING 1031
SWIDTH 216 0
DWIDTH 3 0
BBX 5 13 -1 0
BITMAP
D8
D8
00
20
20
20
20
20
20
20
20
20
20
ENDCHAR
STARTCHAR 0408
ENCODING 1032
SWIDTH 504 0
DWIDTH 7 0
BBX 5 10 1 0
BITMAP
08
08
08
08
08
08
08
08
88
70
ENDCHAR
STARTCHAR 0409
ENCODING 1033
SWIDTH 1080 0
DWIDTH 15 0
BBX 14 10 0 0
BITMAP
0C00
0C00
1200
1200
21F8
2104
4084
4084
8044
8078
ENDCHAR
STARTCHAR 040A
ENCODING 1034
SWIDTH 1080 0
DWIDTH 15 0
BBX 12 10 2 0
BITMAP
8400
8400
8400
8400
FFE0
8410
8410
8410
8410
87E0
ENDCHAR
STARTCHAR 040B
ENCODING 1035
SWIDTH 720 0
DWIDTH 10 0
BBX 9 10 0 0
BITMAP
F800
2000
2000
2000
3F00
2080
2080
2080
2080
2080
ENDCHAR
STARTCHAR 040C
ENCODING 1036
SWIDTH 576 0
DWIDTH 8 0
BBX 6 13 1 0
BITMAP
10
20
00
84
98
A0
C0
C0
A0
90
90
88
84
ENDCHAR
STARTCHAR 040E
ENCODING 1038
SWIDTH 648 0
DWIDTH 9 0
BBX 7 13 1 0
BITMAP
24
18
00
82
82
44
44
28
28
10
10
A0
40
ENDCHAR
STARTCHAR 040F
ENCODING 1039
SWIDTH 648 0
DWIDTH 9 0
BBX 7 12 1 -2
BITMAP
82
82
82
82
82
82
82
82
82
FE
10
10
ENDCHAR
STARTCHAR 0410
ENCODING 1040
SWIDTH 648 0
DWIDTH 9 0
BBX 9 10 0 0
BITMAP
0800
1400
1400
1400
2200
2200
7F00
4100
4100
8080
ENDCHAR
STARTCHAR 0411
ENCODING 1041
SWIDTH 576 0
DWIDTH 8 0
BBX 6 10 1 0
BITMAP
F8
80
80
80
F8
84
84
84
84
F8
ENDCHAR
STARTCHAR 0412
ENCODING 1042
SWIDTH 576 0
DWIDTH 8 0
BBX 6 10 1 0
BITMAP
F0
88
88
88
F8
84
84
84
84
F8
ENDCHAR
STARTCHAR 0413
ENCODING 1043
SWIDTH 432 0
DWIDTH 6 0
BBX 4 10 2 0
BITMAP
F0
80
80
80
80
80
80
80
80
80
ENDCHAR
STARTCHAR 0414
ENCODING 1044
SWIDTH 720 0
DWIDTH 10 0
BBX 10 12 0 -2
BITMAP
0C00
0C00
1200
1200
3200
2100
2100
4080
4080
FFC0
8040
8040
ENDCHAR
STARTCHAR 0415
ENCODING 1045
SWIDTH 576 0
DWIDTH 8 0
BBX 6 10 1 0
BITMAP
FC
80
80
80
FC
80
80
80
80
FC
ENDCHAR
STARTCHAR 0416
ENCODING 1046
SWIDTH 936 0
DWIDTH 13 0
BBX 11 10 1 0
BITMAP
8420
4440
2480
1500
0E00
1500
2480
2480
4440
8420
ENDCHAR
STARTCHAR 0417
ENCODING 1047
SWIDTH 576 0
DWIDTH 8 0
BBX 6 10 1 0
BITMAP
78
84
04
04
38
04
04
84
84
78
ENDCHAR
STARTCHAR 0418
ENCODING 1048
SWIDTH 720 0
DWIDTH 10 0
BBX 8 10 1 0
BITMAP
81
81
83
85
89
91
A1
C1
81
81
ENDCHAR
STARTCHAR 0419
ENCODING 1049
SWIDTH 720 0
DWIDTH 10 0
BBX 8 13 1 0
BITMAP
24
18
00
81
81
83
85
89
91
A1
C1
81
81
ENDCHAR
STARTCHAR 041A
ENCODING 1050
SWIDTH 576 0
DWIDTH 8 0
BBX 6 10 1 0
BITMAP
84
98
A0
C0
C0
A0
90
90
88
84
ENDCHAR
STARTCHAR 041B
ENCODING 1051
SWIDTH 648 0
DWIDTH 9 0
BBX 9 10 0 0
BITMAP
0800
1400
1400
1400
2200
2200
4100
4100
4100
8080
ENDCHAR
STARTCHAR 041C
ENCODING 1052
SWIDTH 936 0
DWIDTH 13 0
BBX 11 10 1 0
BITMAP
4040
4040
A0A0
A0A0
9120
9120
9120
8A20
8A20
8420
ENDCHAR
STARTCHAR 041D
ENCODING 1053
SWIDTH 720 0
DWIDTH 10 0
BBX 6 10 2 0
BITMAP
84
84
84
84
FC
84
84
84
84
84
ENDCHAR
STARTCHAR 041E
ENCODING 1054
SWIDTH 864 0
DWIDTH 12 0
BBX 10 10 1 0
BITMAP
1E00
2100
4080
8040
8040
8040
8040
4080
2100
1E00
ENDCHAR
STARTCHAR 041F
ENCODING 1055
SWIDTH 720 0
DWIDTH 10 0
BBX 6 10 2 0
BITMAP
FC
84
84
84
84
84
84
84
84
84
ENDCHAR
STARTCHAR 0420
ENCODING 1056
SWIDTH 576 0
DWIDTH 8 0
BBX 6 10 1 0
BITMAP
F8
84
84
84
F8
80
80
80
80
80
ENDCHAR
STARTCHAR 0421
ENCODING 1057
SWIDTH 792 0
DWIDTH 11 0
BBX 9 10 1 0
BITMAP
1E00
2100
4080
8000
8000
8000
8000
4080
2100
1E00
ENDCHAR
STARTCHAR 0422
ENCODING 1058
SWIDTH 360 0
DWIDTH 5 0
BBX 5 10 0 0
BITMAP
F8
20
20
20
20
20
20
20
20
20
ENDCHAR
STARTCHAR 0423
ENCODING 1059
SWIDTH 648 0
DWIDTH 9 0
BBX 7 10 1 0
BITMAP
82
82
44
44
28
28
10
10
A0
40
ENDCHAR
STARTCHAR 0424
ENCODING 1060
SWIDTH 864 0
DWIDTH 12 0
BBX 10 10 1 0
BITMAP
0800
7F80
8840
8840
8840
8840
7F80
0800
0800
0800
ENDCHAR
STARTCHAR 0425
ENCODING 1061
SWIDTH 648 0
DWIDTH 9 0
BBX 7 10 1 0
BITMAP
82
44
44
28
10
10
28
44
44
82
ENDCHAR
STARTCHAR 0426
ENCODING 1062
SWIDTH 720 0
DWIDTH 10 0
BBX 9 12 1 -2
BITMAP
8200
8200
8200
8200
8200
8200
8200
8200
8200
FF80
0080
0080
ENDCHAR
STARTCHAR 0427
ENCODING 1063
SWIDTH 576 0
DWIDTH 8 0
BBX 7 10 0 0
BITMAP
82
82
82
82
7E
02
02
02
02
02
ENDCHAR
STARTCHAR 0428
ENCODING 1064
SWIDTH 1008 0
DWIDTH 14 0
BBX 10 10 2 0
BITMAP
8840
8840
8840
8840
8840
8840
8840
8840
8840
FFC0
ENDCHAR
STARTCHAR 0429
ENCODING 1065
SWIDTH 1080 0
DWIDTH 15 0
BBX 13 12 2 -2
BITMAP
8840
8840
8840
8840
8840
8840
8840
8840
8840
FFF8
0008
0008
ENDCHAR
STARTCHAR 042A
ENCODING 1066
SWIDTH 720 0
DWIDTH 10 0
BBX 9 10 0 0
BITMAP
E000
2000
2000
2000
3F00
2080
2080
2080
2080
3F00
ENDCHAR
STARTCHAR 042B
ENCODING 1067
SWIDTH 792 0
DWIDTH 11 0
BBX 9 10 1 0
BITMAP
8080
8080
8080
8080
FC80
8280
8280
8280
8280
FC80
ENDCHAR
STARTCHAR 042C
ENCODING 1068
SWIDTH 576 0
DWIDTH 8 0
BBX 6 10 1 0
BITMAP
80
80
80
80
F8
84
84
84
84
F8
ENDCHAR
STARTCHAR 042D
ENCODING 1069
SWIDTH 792 0
DWIDTH 11 0
BBX 9 10 1 0
BITMAP
3C00
C200
8100
0080
1F80
0080
0080
8100
8200
7C00
ENDCHAR
STARTCHAR 042E
ENCODING 1070
SWIDTH 1080 0
DWIDTH 15 0
BBX 13 10 1 0
BITMAP
83C0
8420
8810
9008
F008
9008
9008
8810
8420
83C0
ENDCHAR
STARTCHAR 042F
ENCODING 1071
SWIDTH 576 0
DWIDTH 8 0
BBX 7 10 0 0
BITMAP
7E
82
82
82
7E
0A
12
22
42
82
ENDCHAR
STARTCHAR 0430
ENCODING 1072
SWIDTH 720 0
DWIDTH 10 0
BBX 8 7 1 0
BITMAP
3D
43
81
81
81
43
3D
ENDCHAR
STARTCHAR 0431
ENCODING 1073
SWIDTH 648 0
DWIDTH 9 0
BBX 7 10 1 0
BITMAP
3E
40
80
B8
C4
82
82
82
44
38
ENDCHAR
STARTCHAR 0432
ENCODING 1074
SWIDTH 504 0
DWIDTH 7 0
BBX 5 7 1 0
BITMAP
F0
88
88
F0
88
88
F0
ENDCHAR
STARTCHAR 0433
ENCODING 1075
SWIDTH 360 0
DWIDTH 5 0
BBX 4 7 1 0
BITMAP
F0
80
80
80
80
80
80
ENDCHAR
STARTCHAR 0434
ENCODING 1076
SWIDTH 576 0
DWIDTH 8 0
BBX 8 9 0 -2
BITMAP
18
18
24
24
42
42
FF
81
81
ENDCHAR
STARTCHAR 0435
ENCODING 1077
SWIDTH 648 0
DWIDTH 9 0
BBX 7 7 1 0
BITMAP
38
44
82
FE
80
42
3C
ENDCHAR
STARTCHAR 0436
ENCODING 1078
SWIDTH 792 0
DWIDTH 11 0
BBX 11 7 0 0
BITMAP
4440
2480
1500
0E00
3580
4440
8420
ENDCHAR
STARTCHAR 0437
ENCODING 1079
SWIDTH 432 0
DWIDTH 6 0
BBX 5 7 0 0
BITMAP
70
88
08
30
08
88
70
ENDCHAR
STARTCHAR 0438
ENCODING 1080
SWIDTH 648 0
DWIDTH 9 0
BBX 7 7 1 0
BITMAP
82
86
8A
92
A2
C2
82
ENDCHAR
STARTCHAR 0439
ENCODING 1081
SWIDTH 648 0
DWIDTH 9 0
BBX 7 10 1 0
BITMAP
24
18
00
82
86
8A
92
A2
C2
82
ENDCHAR
STARTCHAR 043A
ENCODING 1082
SWIDTH 504 0
DWIDTH 7 0
BBX 5 7 1 0
BITMAP
88
90
A0
C0
A0
90
88
ENDCHAR
STARTCHAR 043B
ENCODING 1083
SWIDTH 576 0
DWIDTH 8 0
BBX 8 7 0 0
BITMAP
18
18
24
24
42
42
81
ENDCHAR
STARTCHAR 043C
ENCODING 1084
SWIDTH 864 0
DWIDTH 12 0
BBX 10 7 1 0
BITMAP
2100
6100
5280
5280
5280
8C40
8C40
ENDCHAR
STARTCHAR 043D
ENCODING 1085
SWIDTH 576 0
DWIDTH 8 0
BBX 6 7 1 0
BITMAP
84
84
84
FC
84
84
84
ENDCHAR
STARTCHAR 043E
ENCODING 1086
SWIDTH 648 0
DWIDTH 9 0
BBX 7 7 1 0
BITMAP
38
44
82
82
82
44
38
ENDCHAR
STARTCHAR 043F
ENCODING 1087
SWIDTH 576 0
DWIDTH 8 0
BBX 6 7 1 0
BITMAP
FC
84
84
84
84
84
84
ENDCHAR
STARTCHAR 0440
ENCODING 1088
SWIDTH 720 0
DWIDTH 10 0
BBX 8 10 1 -3
BITMAP
BC
C2
81
81
81
C2
BC
80
80
80
ENDCHAR
STARTCHAR 0441
ENCODING 1089
SWIDTH 648 0
DWIDTH 9 0
BBX 7 7 1 0
BITMAP
3C
42
80
80
80
42
3C
ENDCHAR
STARTCHAR 0442
ENCODING 1090
SWIDTH 360 0
DWIDTH 5 0
BBX 3 7 1 0
BITMAP
E0
40
40
40
40
40
40
ENDCHAR
STARTCHAR 0443
ENCODING 1091
SWIDTH 576 0
DWIDTH 8 0
BBX 8 10 0 -3
BITMAP
81
42
42
24
24
18
18
10
10
20
ENDCHAR
STARTCHAR 0444
ENCODING 1092
SWIDTH 1080 0
DWIDTH 15 0
BBX 13 13 1 -3
BITMAP
0200
0200
0200
3AE0
4710
8208
8208
8208
4710
3AE0
0200
0200
0200
ENDCHAR
STARTCHAR 0445
ENCODING 1093
SWIDTH 504 0
DWIDTH 7 0
BBX 7 7 0 0
BITMAP
82
44
28
10
28
44
82
ENDCHAR
STARTCHAR 0446
ENCODING 1094
SWIDTH 648 0
DWIDTH 9 0
BBX 8 9 1 -2
BITMAP
84
84
84
84
84
84
FF
01
01
ENDCHAR
STARTCHAR 0447
ENCODING 1095
SWIDTH 432 0
DWIDTH 6 0
BBX 5 7 0 0
BITMAP
88
88
88
78
08
08
08
ENDCHAR
STARTCHAR 0448
ENCODING 1096
SWIDTH 936 0
DWIDTH 13 0
BBX 11 7 1 0
BITMAP
8420
8420
8420
8420
8420
8420
FFE0
ENDCHAR
STARTCHAR 0449
ENCODING 1097
SWIDTH 1008 0
DWIDTH 14 0
BBX 13 9 1 -2
BITMAP
8420
8420
8420
8420
8420
8420
FFF8
0008
0008
ENDCHAR
STARTCHAR 044A
ENCODING 1098
SWIDTH 504 0
DWIDTH 7 0
BBX 6 7 0 0
BITMAP
C0
40
40
78
44
44
78
ENDCHAR
STARTCHAR 044B
ENCODING 1099
SWIDTH 648 0
DWIDTH 9 0
BBX 7 7 1 0
BITMAP
82
82
82
F2
8A
8A
F2
ENDCHAR
STARTCHAR 044C
ENCODING 1100
SWIDTH 504 0
DWIDTH 7 0
BBX 5 7 1 0
BITMAP
80
80
80
F0
88
88
F0
ENDCHAR
STARTCHAR 044D
ENCODING 1101
SWIDTH 648 0
DWIDTH 9 0
BBX 7 7 1 0
BITMAP
78
84
02
1E
02
84
78
ENDCHAR
STARTCHAR 044E
ENCODING 1102
SWIDTH 864 0
DWIDTH 12 0
BBX 10 7 1 0
BITMAP
8700
8880
9040
F040
9040
8880
8700
ENDCHAR
STARTCHAR 044F
ENCODING 1103
SWIDTH 432 0
DWIDTH 6 0
BBX 4 7 1 0
BITMAP
70
90
90
70
50
90
90
ENDCHAR
STARTCHAR 0451
ENCODING 1105
SWIDTH 648 0
DWIDTH 9 0
BBX 7 10 1 0
BITMAP
6C
6C
00
38
44
82
FE
80
42
3C
ENDCHAR
STARTCHAR 0452
ENCODING 1106
SWIDTH 648 0
DWIDTH 9 0
BBX 8 13 0 -3
BITMAP
40
FC
40
5C
62
41
41
41
41
41
01
01
02
ENDCHAR
STARTCHAR 0453
ENCODING 1107
SWIDTH 360 0
DWIDTH 5 0
BBX 4 10 1 0
BITMAP
40
80
00
F0
80
80
80
80
80
80
ENDCHAR
STARTCHAR 0454
ENCODING 1108
SWIDTH 648 0
DWIDTH 9 0
BBX 7 7 1 0
BITMAP
3C
42
80
F0
80
42
3C
ENDCHAR
STARTCHAR 0455
ENCODING 1109
SWIDTH 360 0
DWIDTH 5 0
BBX 4 7 0 0
BITMAP
60
90
80
60
10
90
60
ENDCHAR
STARTCHAR 0456
ENCODING 1110
SWIDTH 216 0
DWIDTH 3 0
BBX 1 10 1 0
BITMAP
80
80
00
80
80
80
80
80
80
80
ENDCHAR
STARTCHAR 0457
ENCODING 1111
SWIDTH 216 0
DWIDTH 3 0
BBX 5 10 -1 0
BITMAP
D8
D8
00
20
20
20
20
20
20
20
ENDCHAR
STARTCHAR 0458
ENCODING 1112
SWIDTH 216 0
DWIDTH 3 0
BBX 2 13 0 -3
BITMAP
40
40
00
40
40
40
40
40
40
40
40
40
80
ENDCHAR
STARTCHAR 0459
ENCODING 1113
SWIDTH 792 0
DWIDTH 11 0
BBX 10 7 0 0
BITMAP
1000
2800
2800
4780
4440
8240
8380
ENDCHAR
STARTCHAR 045A
ENCODING 1114
SWIDTH 864 0
DWIDTH 12 0
BBX 10 7 1 0
BITMAP
8400
8400
8400
FF80
8440
8440
8780
ENDCHAR
STARTCHAR 045B
ENCODING 1115
SWIDTH 648 0
DWIDTH 9 0
BBX 8 10 0 0
BITMAP
40
FC
40
5C
62
41
41
41
41
41
ENDCHAR
STARTCHAR 045C
ENCODING 1116
SWIDTH 504 0
DWIDTH 7 0
BBX 5 10 1 0
BITMAP
20
40
00
88
90
A0
C0
A0
90
88
ENDCHAR
STARTCHAR 045E
ENCODING 1118
SWIDTH 576 0
DWIDTH 8 0
BBX 8 13 0 -3
BITMAP
24
18
00
81
42
42
24
24
18
18
10
10
20
ENDCHAR
STARTCHAR 045F
ENCODING 1119
SWIDTH 576 0
DWIDTH 8 0
BBX 6 9 1 -2
BITMAP
84
84
84
84
84
84
FC
10
10
ENDCHAR
STARTCHAR 0490
ENCODING 1168
SWIDTH 432 0
DWIDTH 6 0
BBX 5 12 1 0
BITMAP
08
08
F8
80
80
80
80
80
80
80
80
80
ENDCHAR
STARTCHAR 0491
ENCODING 1169
SWIDTH 360 0
DWIDTH 5 0
BBX 3 9 1 0
BITMAP
20
20
E0
80
80
80
80
80
80
ENDCHAR
STARTCHAR 1E80
ENCODING 7808
SWIDTH 1080 0
DWIDTH 15 0
BBX 13 13 1 0
BITMAP
0400
0200
0000
8208
8208
4510
4510
4510
28A0
28A0
28A0
1040
1040
ENDCHAR
STARTCHAR 1E81
ENCODING 7809
SWIDTH 864 0
DWIDTH 12 0
BBX 11 10 0 0
BITMAP
0800
0400
0000
8420
4440
4A40
2A80
2A80
2A80
1100
ENDCHAR
STARTCHAR 1E82
ENCODING 7810
SWIDTH 1080 0
DWIDTH 15 0
BBX 13 13 1 0
BITMAP
0200
0400
0000
8208
8208
4510
4510
4510
28A0
28A0
28A0
1040
1040
ENDCHAR
STARTCHAR 1E83
ENCODING 7811
SWIDTH 864 0
DWIDTH 12 0
BBX 11 10 0 0
BITMAP
0200
0400
0000
8420
4440
4A40
2A80
2A80
2A80
1100
ENDCHAR
STARTCHAR 1E84
ENCODING 7812
SWIDTH 936 0
DWIDTH 13 0
BBX 13 13 1 0
BITMAP
0D80
0D80
0000
8208
8208
4510
4510
4510
28A0
28A0
28A0
1040
1040
ENDCHAR
STARTCHAR 1E85
ENCODING 7813
SWIDTH 864 0
DWIDTH 12 0
BBX 11 10 0 0
BITMAP
1B00
1B00
0000
8420
4440
4A40
2A80
2A80
2A80
1100
ENDCHAR
STARTCHAR 1EF2
ENCODING 7922
SWIDTH 504 0
DWIDTH 7 0
BBX 7 13 0 0
BITMAP
20
10
00
82
44
44
28
10
10
10
10
10
10
ENDCHAR
STARTCHAR 1EF3
ENCODING 7923
SWIDTH 576 0
DWIDTH 8 0
BBX 8 13 0 -3
BITMAP
10
08
00
81
42
42
24
24
18
18
10
10
20
ENDCHAR
STARTCHAR 2013
ENCODING 8211
SWIDTH 504 0
DWIDTH 7 0
BBX 7 1 0 3
BITMAP
FE
ENDCHAR
STARTCHAR 2014
ENCODING 8212
SWIDTH 1008 0
DWIDTH 14 0
BBX 14 1 0 3
BITMAP
FFFC
ENDCHAR
STARTCHAR 2015
ENCODING 8213
SWIDTH 792 0
DWIDTH 11 0
BBX 11 1 0 3
BITMAP
FFE0
ENDCHAR
STARTCHAR 2017
ENCODING 8215
SWIDTH 504 0
DWIDTH 7 0
BBX 9 3 -1 -4
BITMAP
FF80
0000
FF80
ENDCHAR
STARTCHAR 2018
ENCODING 8216
SWIDTH 360 0
DWIDTH 5 0
BBX 2 4 2 6
BITMAP
40
80
C0
C0
ENDCHAR
STARTCHAR 2019
ENCODING 8217
SWIDTH 360 0
DWIDTH 5 0
BBX 2 4 2 6
BITMAP
C0
C0
40
80
ENDCHAR
STARTCHAR 201A
ENCODING 8218
SWIDTH 360 0
DWIDTH 5 0
BBX 2 4 2 -2
BITMAP
C0
C0
40
80
ENDCHAR
STARTCHAR 201B
ENCODING 8219
SWIDTH 360 0
DWIDTH 5 0
BBX 2 4 2 6
BITMAP
C0
C0
80
40
ENDCHAR
STARTCHAR 201C
ENCODING 8220
SWIDTH 504 0
DWIDTH 7 0
BBX 6 4 1 6
BITMAP
44
88
CC
CC
ENDCHAR
STARTCHAR 201D
ENCODING 8221
SWIDTH 504 0
DWIDTH 7 0
BBX 6 4 1 6
BITMAP
CC
CC
44
88
ENDCHAR
STARTCHAR 201E
ENCODING 8222
SWIDTH 504 0
DWIDTH 7 0
BBX 6 4 1 -2
BITMAP
CC
CC
44
88
ENDCHAR
STARTCHAR 2020
ENCODING 8224
SWIDTH 576 0
DWIDTH 8 0
BBX 5 12 1 -2
BITMAP
20
20
20
F8
20
20
20
20
20
20
20
20
ENDCHAR
STARTCHAR 2021
ENCODING 8225
SWIDTH 504 0
DWIDTH 7 0
BBX 5 12 1 -2
BITMAP
20
20
F8
20
20
20
20
20
20
F8
20
20
ENDCHAR
STARTCHAR 2022
ENCODING 8226
SWIDTH 576 0
DWIDTH 8 0
BBX 4 4 2 3
BITMAP
60
F0
F0
60
ENDCHAR
STARTCHAR 2026
ENCODING 8230
SWIDTH 1080 0
DWIDTH 15 0
BBX 12 2 1 0
BITMAP
C630
C630
ENDCHAR
STARTCHAR 2030
ENCODING 8240
SWIDTH 1224 0
DWIDTH 17 0
BBX 17 10 0 0
BITMAP
7FC000
888000
890000
8A0000
740000
05C700
0A2880
122880
222880
41C700
ENDCHAR
STARTCHAR 2032
ENCODING 8242
SWIDTH 216 0
DWIDTH 3 0
BBX 1 3 1 7
BITMAP
80
80
80
ENDCHAR
STARTCHAR 2033
ENCODING 8243
SWIDTH 288 0
DWIDTH 4 0
BBX 4 3 0 7
BITMAP
90
90
90
ENDCHAR
STARTCHAR 2039
ENCODING 8249
SWIDTH 288 0
DWIDTH 4 0
BBX 3 7 1 0
BITMAP
20
40
40
80
40
40
20
ENDCHAR
STARTCHAR 203A
ENCODING 8250
SWIDTH 288 0
DWIDTH 4 0
BBX 3 7 1 0
BITMAP
80
40
40
20
40
40
80
ENDCHAR
STARTCHAR 203C
ENCODING 8252
SWIDTH 504 0
DWIDTH 7 0
BBX 4 10 2 0
BITMAP
90
90
90
90
90
90
90
00
90
90
ENDCHAR
STARTCHAR 203E
ENCODING 8254
SWIDTH 576 0
DWIDTH 8 0
BBX 8 1 0 11
BITMAP
FF
ENDCHAR
STARTCHAR 2044
ENCODING 8260
SWIDTH 144 0
DWIDTH 2 0
BBX 8 10 -3 0
BITMAP
01
02
04
04
08
10
20
20
40
80
ENDCHAR
STARTCHAR 207F
ENCODING 8319
SWIDTH 360 0
DWIDTH 5 0
BBX 4 5 1 4
BITMAP
F0
90
90
90
90
ENDCHAR
STARTCHAR 20A3
ENCODING 8355
SWIDTH 504 0
DWIDTH 7 0
BBX 6 10 0 0
BITMAP
7C
40
40
40
7C
40
40
F0
40
40
ENDCHAR
STARTCHAR 20A4
ENCODING 8356
SWIDTH 576 0
DWIDTH 8 0
BBX 7 10 0 0
BITMAP
38
44
40
F8
20
F8
20
E2
B2
DC
ENDCHAR
STARTCHAR 20A7
ENCODING 8359
SWIDTH 1080 0
DWIDTH 15 0
BBX 13 10 1 0
BITMAP
F900
8500
8500
87F0
F948
8140
8130
8108
8148
8130
ENDCHAR
STARTCHAR 20AC
ENCODING 8364
SWIDTH 576 0
DWIDTH 8 0
BBX 7 10 0 0
BITMAP
1E
20
40
FC
40
F8
40
40
20
1E
ENDCHAR
STARTCHAR 2105
ENCODING 8453
SWIDTH 864 0
DWIDTH 12 0
BBX 12 10 0 0
BITMAP
6040
9080
8100
9100
6200
0460
0890
0890
1090
2060
ENDCHAR
STARTCHAR 2113
ENCODING 8467
SWIDTH 360 0
DWIDTH 5 0
BBX 4 10 0 0
BITMAP
70
50
50
50
60
40
40
C0
40
70
ENDCHAR
STARTCHAR 2116
ENCODING 8470
SWIDTH 1080 0
DWIDTH 15 0
BBX 14 10 1 0
BITMAP
8100
8100
C100
A138
9144
8944
8544
8338
8100
817C
ENDCHAR
STARTCHAR 2122
ENCODING 8482
SWIDTH 1008 0
DWIDTH 14 0
BBX 13 6 0 4
BITMAP
FB18
2318
22A8
22A8
2248
2248
ENDCHAR
STARTCHAR 2126
ENCODING 8486
SWIDTH 792 0
DWIDTH 11 0
BBX 9 10 1 0
BITMAP
1C00
2200
4100
8080
8080
8080
8080
4100
2200
F780
ENDCHAR
STARTCHAR 212E
ENCODING 8494
SWIDTH 576 0
DWIDTH 8 0
BBX 6 8 1 0
BITMAP
78
48
CC
FC
C0
C0
44
38
ENDCHAR
STARTCHAR 215B
ENCODING 8539
SWIDTH 864 0
DWIDTH 12 0
BBX 11 10 1 0
BITMAP
C100
4200
4200
4400
4800
09E0
1120
20C0
2120
41E0
ENDCHAR
STARTCHAR 215C
ENCODING 8540
SWIDTH 864 0
DWIDTH 12 0
BBX 12 10 0 0
BITMAP
F040
1080
2100
9100
7200
04F0
0490
0860
1090
20F0
ENDCHAR
STARTCHAR 215D
ENCODING 8541
SWIDTH 864 0
DWIDTH 12 0
BBX 12 10 0 0
BITMAP
7080
8100
E100
1200
E400
04F0
0890
1060
1090
20F0
ENDCHAR
STARTCHAR 215E
ENCODING 8542
SWIDTH 864 0
DWIDTH 12 0
BBX 11 10 1 0
BITMAP
F100
2200
4200
4400
8800
09E0
1120
20C0
2120
41E0
ENDCHAR
STARTCHAR 2190
ENCODING 8592
SWIDTH 1008 0
DWIDTH 14 0
BBX 13 5 1 1
BITMAP
2000
4000
FFF8
4000
2000
ENDCHAR
STARTCHAR 2191
ENCODING 8593
SWIDTH 504 0
DWIDTH 7 0
BBX 5 13 1 -3
BITMAP
20
70
A8
20
20
20
20
20
20
20
20
20
20
ENDCHAR
STARTCHAR 2192
ENCODING 8594
SWIDTH 1008 0
DWIDTH 14 0
BBX 13 5 1 1
BITMAP
0020
0010
FFF8
0010
0020
ENDCHAR
STARTCHAR 2193
ENCODING 8595
SWIDTH 504 0
DWIDTH 7 0
BBX 5 13 1 -3
BITMAP
20
20
20
20
20
20
20
20
20
20
A8
70
20
ENDCHAR
STARTCHAR 2194
ENCODING 8596
SWIDTH 1008 0
DWIDTH 14 0
BBX 13 5 1 1
BITMAP
2020
4010
FFF8
4010
2020
ENDCHAR
STARTCHAR 2195
ENCODING 8597
SWIDTH 504 0
DWIDTH 7 0
BBX 5 13 1 -3
BITMAP
20
70
A8
20
20
20
20
20
20
20
A8
70
20
ENDCHAR
STARTCHAR 21A8
ENCODING 8616
SWIDTH 504 0
DWIDTH 7 0
BBX 5 15 1 -5
BITMAP
20
70
A8
20
20
20
20
20
20
20
A8
70
20
00
F8
ENDCHAR
STARTCHAR 2202
ENCODING 8706
SWIDTH 504 0
DWIDTH 7 0
BBX 6 10 0 0
BITMAP
18
24
24
04
3C
44
84
88
90
60
ENDCHAR
STARTCHAR 2206
ENCODING 8710
SWIDTH 648 0
DWIDTH 9 0
BBX 9 9 0 0
BITMAP
0800
0800
1400
1400
2200
2200
4100
4100
FF80
ENDCHAR
STARTCHAR 220F
ENCODING 8719
SWIDTH 864 0
DWIDTH 12 0
BBX 10 13 1 -3
BITMAP
FFC0
8040
8040
8040
8040
8040
8040
8040
8040
8040
8040
8040
8040
ENDCHAR
STARTCHAR 2211
ENCODING 8721
SWIDTH 720 0
DWIDTH 10 0
BBX 8 13 1 -3
BITMAP
FF
80
40
20
10
10
08
10
20
20
40
80
FF
ENDCHAR
STARTCHAR 2212
ENCODING 8722
SWIDTH 576 0
DWIDTH 8 0
BBX 6 1 1 5
BITMAP
FC
ENDCHAR
STARTCHAR 2215
ENCODING 8725
SWIDTH 144 0
DWIDTH 2 0
BBX 8 10 -3 0
BITMAP
01
02
04
04
08
10
20
20
40
80
ENDCHAR
STARTCHAR 2219
ENCODING 8729
SWIDTH 288 0
DWIDTH 4 0
BBX 2 2 1 4
BITMAP
C0
C0
ENDCHAR
STARTCHAR 221A
ENCODING 8730
SWIDTH 576 0
DWIDTH 8 0
BBX 7 12 1 0
BITMAP
02
02
02
04
04
C4
44
24
28
18
18
08
ENDCHAR
STARTCHAR 221E
ENCODING 8734
SWIDTH 720 0
DWIDTH 10 0
BBX 8 5 1 2
BITMAP
66
A9
91
A9
66
ENDCHAR
STARTCHAR 221F
ENCODING 8735
SWIDTH 1008 0
DWIDTH 14 0
BBX 8 9 3 0
BITMAP
80
80
80
80
80
80
80
80
FF
ENDCHAR
STARTCHAR 2229
ENCODING 8745
SWIDTH 576 0
DWIDTH 8 0
BBX 6 10 1 0
BITMAP
30
48
84
84
84
84
84
84
84
84
ENDCHAR
STARTCHAR 222B
ENCODING 8747
SWIDTH 360 0
DWIDTH 5 0
BBX 5 14 0 -1
BITMAP
18
20
20
20
20
20
20
20
20
20
20
20
20
C0
ENDCHAR
STARTCHAR 2248
ENCODING 8776
SWIDTH 576 0
DWIDTH 8 0
BBX 7 5 0 2
BITMAP
72
9C
00
72
9C
ENDCHAR
STARTCHAR 2260
ENCODING 8800
SWIDTH 576 0
DWIDTH 8 0
BBX 7 10 0 0
BITMAP
04
08
08
FE
10
10
FE
20
20
40
ENDCHAR
STARTCHAR 2261
ENCODING 8801
SWIDTH 576 0
DWIDTH 8 0
BBX 6 7 1 2
BITMAP
FC
00
00
FC
00
00
FC
ENDCHAR
STARTCHAR 2264
ENCODING 8804
SWIDTH 576 0
DWIDTH 8 0
BBX 7 9 0 0
BITMAP
02
0C
70
80
70
0C
02
00
FE
ENDCHAR
STARTCHAR 2265
ENCODING 8805
SWIDTH 576 0
DWIDTH 8 0
BBX 7 9 0 0
BITMAP
80
60
1C
02
1C
60
80
00
FE
ENDCHAR
STARTCHAR 2302
ENCODING 8962
SWIDTH 576 0
DWIDTH 8 0
BBX 6 8 1 0
BITMAP
10
30
48
84
84
84
84
FC
ENDCHAR
STARTCHAR 2310
ENCODING 8976
SWIDTH 576 0
DWIDTH 8 0
BBX 6 4 1 3
BITMAP
FC
80
80
80
ENDCHAR
STARTCHAR 2320
ENCODING 8992
SWIDTH 576 0
DWIDTH 8 0
BBX 3 16 4 -4
BITMAP
60
80
80
80
80
80
80
80
80
80
80
80
80
80
80
80
ENDCHAR
STARTCHAR 2321
ENCODING 8993
SWIDTH 576 0
DWIDTH 8 0
BBX 3 15 2 -3
BITMAP
20
20
20
20
20
20
20
20
20
20
20
20
20
20
C0
ENDCHAR
STARTCHAR 2500
ENCODING 9472
SWIDTH 720 0
DWIDTH 10 0
BBX 10 1 0 4
BITMAP
FFC0
ENDCHAR
STARTCHAR 2502
ENCODING 9474
SWIDTH 720 0
DWIDTH 10 0
BBX 2 17 4 -4
BITMAP
C0
C0
C0
C0
C0
C0
C0
C0
C0
C0
C0
C0
C0
C0
C0
C0
C0
ENDCHAR
STARTCHAR 250C
ENCODING 9484
SWIDTH 720 0
DWIDTH 10 0
BBX 6 9 4 -4
BITMAP
FC
C0
C0
C0
C0
C0
C0
C0
C0
ENDCHAR
STARTCHAR 2510
ENCODING 9488
SWIDTH 720 0
DWIDTH 10 0
BBX 6 9 0 -4
BITMAP
FC
0C
0C
0C
0C
0C
0C
0C
0C
ENDCHAR
STARTCHAR 2514
ENCODING 9492
SWIDTH 720 0
DWIDTH 10 0
BBX 6 9 4 4
BITMAP
C0
C0
C0
C0
C0
C0
C0
C0
FC
ENDCHAR
STARTCHAR 2518
ENCODING 9496
SWIDTH 720 0
DWIDTH 10 0
BBX 6 9 0 4
BITMAP
0C
0C
0C
0C
0C
0C
0C
0C
FC
ENDCHAR
STARTCHAR 251C
ENCODING 9500
SWIDTH 720 0
DWIDTH 10 0
BBX 6 17 4 -4
BITMAP
C0
C0
C0
C0
C0
C0
C0
C0
FC
C0
C0
C0
C0
C0
C0
C0
C0
ENDCHAR
STARTCHAR 2524
ENCODING 9508
SWIDTH 720 0
DWIDTH 10 0
BBX 6 17 0 -4
BITMAP
0C
0C
0C
0C
0C
0C
0C
0C
FC
0C
0C
0C
0C
0C
0C
0C
0C
ENDCHAR
STARTCHAR 252C
ENCODING 9516
SWIDTH 720 0
DWIDTH 10 0
BBX 10 9 0 -4
BITMAP
FFC0
0C00
0C00
0C00
0C00
0C00
0C00
0C00
0C00
ENDCHAR
STARTCHAR 2534
ENCODING 9524
SWIDTH 720 0
DWIDTH 10 0
BBX 10 9 0 4
BITMAP
0C00
0C00
0C00
0C00
0C00
0C00
0C00
0C00
FFC0
ENDCHAR
STARTCHAR 253C
ENCODING 9532
SWIDTH 720 0
DWIDTH 10 0
BBX 10 17 0 -4
BITMAP
0C00
0C00
0C00
0C00
0C00
0C00
0C00
0C00
FFC0
0C00
0C00
0C00
0C00
0C00
0C00
0C00
0C00
ENDCHAR
STARTCHAR 2550
ENCODING 9552
SWIDTH 720 0
DWIDTH 10 0
BBX 10 4 0 2
BITMAP
FFC0
0000
FFC0
FFC0
ENDCHAR
STARTCHAR 2551
ENCODING 9553
SWIDTH 720 0
DWIDTH 10 0
BBX 4 17 3 -4
BITMAP
90
90
90
90
90
90
90
90
90
90
90
90
90
90
90
90
90
ENDCHAR
STARTCHAR 2552
ENCODING 9554
SWIDTH 720 0
DWIDTH 10 0
BBX 6 10 4 -4
BITMAP
FC
C0
FC
FC
C0
C0
C0
C0
C0
C0
ENDCHAR
STARTCHAR 2553
ENCODING 9555
SWIDTH 720 0
DWIDTH 10 0
BBX 7 9 3 -4
BITMAP
FE
90
90
90
90
90
90
90
90
ENDCHAR
STARTCHAR 2554
ENCODING 9556
SWIDTH 720 0
DWIDTH 10 0
BBX 7 10 3 -4
BITMAP
FE
80
9E
9E
90
90
90
90
90
90
ENDCHAR
STARTCHAR 2555
ENCODING 9557
SWIDTH 720 0
DWIDTH 10 0
BBX 6 10 0 -4
BITMAP
FC
0C
FC
FC
0C
0C
0C
0C
0C
0C
ENDCHAR
STARTCHAR 2556
ENCODING 9558
SWIDTH 720 0
DWIDTH 10 0
BBX 7 9 0 -4
BITMAP
FE
12
12
12
12
12
12
12
12
ENDCHAR
STARTCHAR 2557
ENCODING 9559
SWIDTH 720 0
DWIDTH 10 0
BBX 7 10 0 -4
BITMAP
FE
02
F2
F2
12
12
12
12
12
12
ENDCHAR
STARTCHAR 2558
ENCODING 9560
SWIDTH 720 0
DWIDTH 10 0
BBX 6 11 4 2
BITMAP
C0
C0
C0
C0
C0
C0
C0
FC
C0
FC
FC
ENDCHAR
STARTCHAR 2559
ENCODING 9561
SWIDTH 720 0
DWIDTH 10 0
BBX 7 9 3 4
BITMAP
90
90
90
90
90
90
90
90
FE
ENDCHAR
STARTCHAR 255A
ENCODING 9562
SWIDTH 720 0
DWIDTH 10 0
BBX 7 11 3 2
BITMAP
90
90
90
90
90
90
90
9E
80
FE
FE
ENDCHAR
STARTCHAR 255B
ENCODING 9563
SWIDTH 720 0
DWIDTH 10 0
BBX 6 11 0 2
BITMAP
0C
0C
0C
0C
0C
0C
0C
FC
0C
FC
FC
ENDCHAR
STARTCHAR 255C
ENCODING 9564
SWIDTH 720 0
DWIDTH 10 0
BBX 7 9 0 4
BITMAP
12
12
12
12
12
12
12
12
FE
ENDCHAR
STARTCHAR 255D
ENCODING 9565
SWIDTH 720 0
DWIDTH 10 0
BBX 7 11 0 2
BITMAP
12
12
12
12
12
12
12
F2
02
FE
FE
ENDCHAR
STARTCHAR 255E
ENCODING 9566
SWIDTH 720 0
DWIDTH 10 0
BBX 6 17 4 -4
BITMAP
C0
C0
C0
C0
C0
C0
C0
FC
C0
FC
FC
C0
C0
C0
C0
C0
C0
ENDCHAR
STARTCHAR 255F
ENCODING 9567
SWIDTH 720 0
DWIDTH 10 0
BBX 7 17 3 -4
BITMAP
90
90
90
90
90
90
90
90
9E
90
90
90
90
90
90
90
90
ENDCHAR
STARTCHAR 2560
ENCODING 9568
SWIDTH 720 0
DWIDTH 10 0
BBX 7 17 3 -4
BITMAP
90
90
90
90
90
90
90
9E
80
9E
9E
90
90
90
90
90
90
ENDCHAR
STARTCHAR 2561
ENCODING 9569
SWIDTH 720 0
DWIDTH 10 0
BBX 6 17 0 -4
BITMAP
0C
0C
0C
0C
0C
0C
0C
FC
0C
FC
FC
0C
0C
0C
0C
0C
0C
ENDCHAR
STARTCHAR 2562
ENCODING 9570
SWIDTH 720 0
DWIDTH 10 0
BBX 7 17 0 -4
BITMAP
12
12
12
12
12
12
12
12
F2
12
12
12
12
12
12
12
12
ENDCHAR
STARTCHAR 2563
ENCODING 9571
SWIDTH 720 0
DWIDTH 10 0
BBX 7 17 0 -4
BITMAP
12
12
12
12
12
12
12
F2
02
F2
F2
12
12
12
12
12
12
ENDCHAR
STARTCHAR 2564
ENCODING 9572
SWIDTH 720 0
DWIDTH 10 0
BBX 10 10 0 -4
BITMAP
FFC0
0000
FFC0
FFC0
0C00
0C00
0C00
0C00
0C00
0C00
ENDCHAR
STARTCHAR 2565
ENCODING 9573
SWIDTH 720 0
DWIDTH 10 0
BBX 10 9 0 -4
BITMAP
FFC0
1200
1200
1200
1200
1200
1200
1200
1200
ENDCHAR
STARTCHAR 2566
ENCODING 9574
SWIDTH 720 0
DWIDTH 10 0
BBX 10 10 0 -4
BITMAP
FFC0
0000
F3C0
F3C0
1200
1200
1200
1200
1200
1200
ENDCHAR
STARTCHAR 2567
ENCODING 9575
SWIDTH 720 0
DWIDTH 10 0
BBX 10 11 0 2
BITMAP
0C00
0C00
0C00
0C00
0C00
0C00
0C00
FFC0
0000
FFC0
FFC0
ENDCHAR
STARTCHAR 2568
ENCODING 9576
SWIDTH 720 0
DWIDTH 10 0
BBX 10 9 0 4
BITMAP
1200
1200
1200
1200
1200
1200
1200
1200
FFC0
ENDCHAR
STARTCHAR 2569
ENCODING 9577
SWIDTH 720 0
DWIDTH 10 0
BBX 10 11 0 2
BITMAP
1200
1200
1200
1200
1200
1200
1200
F3C0
0000
FFC0
FFC0
ENDCHAR
STARTCHAR 256A
ENCODING 9578
SWIDTH 720 0
DWIDTH 10 0
BBX 10 17 0 -4
BITMAP
0C00
0C00
0C00
0C00
0C00
0C00
0C00
FFC0
0C00
FFC0
FFC0
0C00
0C00
0C00
0C00
0C00
0C00
ENDCHAR
STARTCHAR 256B
ENCODING 9579
SWIDTH 720 0
DWIDTH 10 0
BBX 10 17 0 -4
BITMAP
1200
1200
1200
1200
1200
1200
1200
1200
FFC0
1200
1200
1200
1200
1200
1200
1200
1200
ENDCHAR
STARTCHAR 256C
ENCODING 9580
SWIDTH 720 0
DWIDTH 10 0
BBX 10 17 0 -4
BITMAP
1200
1200
1200
1200
1200
1200
1200
F3C0
0000
F3C0
F3C0
1200
1200
1200
1200
1200
1200
ENDCHAR
STARTCHAR 2580
ENCODING 9600
SWIDTH 720 0
DWIDTH 10 0
BBX 10 9 0 4
BITMAP
FFC0
FFC0
FFC0
FFC0
FFC0
FFC0
FFC0
FFC0
FFC0
ENDCHAR
STARTCHAR 2584
ENCODING 9604
SWIDTH 720 0
DWIDTH 10 0
BBX 10 8 0 -4
BITMAP
FFC0
FFC0
FFC0
FFC0
FFC0
FFC0
FFC0
FFC0
ENDCHAR
STARTCHAR 2588
ENCODING 9608
SWIDTH 720 0
DWIDTH 10 0
BBX 10 17 0 -4
BITMAP
FFC0
FFC0
FFC0
FFC0
FFC0
FFC0
FFC0
FFC0
FFC0
FFC0
FFC0
FFC0
FFC0
FFC0
FFC0
FFC0
FFC0
ENDCHAR
STARTCHAR 258C
ENCODING 9612
SWIDTH 720 0
DWIDTH 10 0
BBX 5 17 0 -4
BITMAP
F8
F8
F8
F8
F8
F8
F8
F8
F8
F8
F8
F8
F8
F8
F8
F8
F8
ENDCHAR
STARTCHAR 2590
ENCODING 9616
SWIDTH 720 0
DWIDTH 10 0
BBX 5 17 5 -4
BITMAP
F8
F8
F8
F8
F8
F8
F8
F8
F8
F8
F8
F8
F8
F8
F8
F8
F8
ENDCHAR
STARTCHAR 2591
ENCODING 9617
SWIDTH 720 0
DWIDTH 10 0
BBX 9 15 1 -2
BITMAP
9000
0000
4480
0000
9000
4480
0000
9000
0000
4480
9000
0000
4480
0000
9000
ENDCHAR
STARTCHAR 2592
ENCODING 9618
SWIDTH 720 0
DWIDTH 10 0
BBX 10 15 0 -2
BITMAP
6A40
0000
9580
0000
6A40
9580
0000
6A40
0000
9580
6A40
0000
9580
0000
6A40
ENDCHAR
STARTCHAR 2593
ENCODING 9619
SWIDTH 720 0
DWIDTH 10 0
BBX 10 17 0 -4
BITMAP
4AC0
FFC0
B580
FFC0
6AC0
B580
FFC0
6AC0
FFC0
B580
6AC0
FFC0
B580
FFC0
6AC0
FFC0
FFC0
ENDCHAR
STARTCHAR 25A0
ENCODING 9632
SWIDTH 576 0
DWIDTH 8 0
BBX 6 6 1 0
BITMAP
FC
FC
FC
FC
FC
FC
ENDCHAR
STARTCHAR 25A1
ENCODING 9633
SWIDTH 576 0
DWIDTH 8 0
BBX 6 6 1 0
BITMAP
FC
84
84
84
84
FC
ENDCHAR
STARTCHAR 25AA
ENCODING 9642
SWIDTH 360 0
DWIDTH 5 0
BBX 3 3 1 3
BITMAP
E0
E0
E0
ENDCHAR
STARTCHAR 25AB
ENCODING 9643
SWIDTH 360 0
DWIDTH 5 0
BBX 3 3 1 3
BITMAP
E0
A0
E0
ENDCHAR
STARTCHAR 25AC
ENCODING 9644
SWIDTH 1008 0
DWIDTH 14 0
BBX 14 3 0 2
BITMAP
FFFC
FFFC
FFFC
ENDCHAR
STARTCHAR 25B2
ENCODING 9650
SWIDTH 1008 0
DWIDTH 14 0
BBX 10 9 2 0
BITMAP
0C00
0C00
1E00
1E00
3F00
3F00
7F80
7F80
FFC0
ENDCHAR
STARTCHAR 25BA
ENCODING 9658
SWIDTH 1008 0
DWIDTH 14 0
BBX 9 9 2 0
BITMAP
C000
F000
FC00
FF00
FF80
FE00
F800
E000
8000
ENDCHAR
STARTCHAR 25BC
ENCODING 9660
SWIDTH 1008 0
DWIDTH 14 0
BBX 8 8 3 1
BITMAP
FF
FF
7E
7E
3C
3C
18
18
ENDCHAR
STARTCHAR 25C4
ENCODING 9668
SWIDTH 1008 0
DWIDTH 14 0
BBX 10 9 2 0
BITMAP
00C0
03C0
0FC0
3FC0
FFC0
3FC0
0FC0
03C0
00C0
ENDCHAR
STARTCHAR 25CA
ENCODING 9674
SWIDTH 504 0
DWIDTH 7 0
BBX 6 9 0 0
BITMAP
10
28
48
44
84
44
48
28
10
ENDCHAR
STARTCHAR 25CB
ENCODING 9675
SWIDTH 576 0
DWIDTH 8 0
BBX 6 7 1 0
BITMAP
38
C4
84
84
84
68
10
ENDCHAR
STARTCHAR 25CF
ENCODING 9679
SWIDTH 576 0
DWIDTH 8 0
BBX 6 6 1 1
BITMAP
78
FC
FC
FC
FC
78
ENDCHAR
STARTCHAR 25D8
ENCODING 9688
SWIDTH 576 0
DWIDTH 8 0
BBX 7 7 1 0
BITMAP
FE
FE
CE
C6
CE
FE
FE
ENDCHAR
STARTCHAR 25D9
ENCODING 9689
SWIDTH 576 0
DWIDTH 8 0
BBX 8 8 0 0
BITMAP
FF
E3
FD
BF
BF
FD
CB
FF
ENDCHAR
STARTCHAR 25E6
ENCODING 9702
SWIDTH 360 0
DWIDTH 5 0
BBX 3 3 1 3
BITMAP
E0
A0
E0
ENDCHAR
STARTCHAR 263A
ENCODING 9786
SWIDTH 1008 0
DWIDTH 14 0
BBX 10 9 2 -1
BITMAP
1E00
2100
4080
5280
8040
4080
4A80
2500
1E00
ENDCHAR
STARTCHAR 263B
ENCODING 9787
SWIDTH 1080 0
DWIDTH 15 0
BBX 9 9 3 -1
BITMAP
1C00
7F00
FF00
D980
FF80
FF80
6B00
7E00
1C00
ENDCHAR
STARTCHAR 263C
ENCODING 9788
SWIDTH 936 0
DWIDTH 13 0
BBX 11 13 1 -2
BITMAP
0400
0400
4E40
3180
4080
4080
C0E0
4080
2080
3180
4E40
0400
0400
ENDCHAR
STARTCHAR 2640
ENCODING 9792
SWIDTH 576 0
DWIDTH 8 0
BBX 7 11 0 -1
BITMAP
38
44
82
82
82
44
38
10
10
7E
10
ENDCHAR
STARTCHAR 2642
ENCODING 9794
SWIDTH 648 0
DWIDTH 9 0
BBX 9 12 0 -3
BITMAP
0300
0D00
0300
0480
0400
3800
4400
8200
8200
8200
4400
3800
ENDCHAR
STARTCHAR 2660
ENCODING 9824
SWIDTH 504 0
DWIDTH 7 0
BBX 7 8 0 0
BITMAP
10
18
3C
7E
FE
6E
10
38
ENDCHAR
STARTCHAR 2663
ENCODING 9827
SWIDTH 648 0
DWIDTH 9 0
BBX 9 8 0 0
BITMAP
1C00
1E00
7F00
7F80
FF80
7F00
0800
1C00
ENDCHAR
STARTCHAR 2665
ENCODING 9829
SWIDTH 576 0
DWIDTH 8 0
BBX 8 7 0 1
BITMAP
7F
FF
7F
7E
3C
1C
18
ENDCHAR
STARTCHAR 2666
ENCODING 9830
SWIDTH 504 0
DWIDTH 7 0
BBX 5 8 1 0
BITMAP
20
70
78
F8
F8
70
70
20
ENDCHAR
STARTCHAR 266A
ENCODING 9834
SWIDTH 792 0
DWIDTH 11 0
BBX 11 14 0 -3
BITMAP
0200
0300
0380
02C0
0220
0200
0200
0200
0200
3E00
7E00
FE00
FE00
7C00
ENDCHAR
STARTCHAR 266B
ENCODING 9835
SWIDTH 1008 0
DWIDTH 14 0
BBX 10 13 2 -3
BITMAP
00C0
07C0
0F40
0840
1040
1040
1040
1040
13C0
73C0
F3C0
F000
7000
ENDCHAR
STARTCHAR F000
ENCODING 61440
SWIDTH 792 0
DWIDTH 11 0
BBX 1 1 0 0
BITMAP
00
ENDCHAR
STARTCHAR F001
ENCODING 61441
SWIDTH 504 0
DWIDTH 7 0
BBX 5 10 1 0
BITMAP
30
48
40
E8
48
48
48
48
48
48
ENDCHAR
STARTCHAR F002
ENCODING 61442
SWIDTH 504 0
DWIDTH 7 0
BBX 5 10 1 0
BITMAP
30
48
48
E8
48
48
48
48
48
48
ENDCHAR
STARTCHAR F003
ENCODING 61443
SWIDTH 360 0
DWIDTH 5 0
BBX 5 5 0 5
BITMAP
10
30
50
F8
10
ENDCHAR
STARTCHAR F004
ENCODING 61444
SWIDTH 360 0
DWIDTH 5 0
BBX 2 3 1 -4
BITMAP
40
80
80
ENDCHAR
STARTCHAR F005
ENCODING 61445
SWIDTH 360 0
DWIDTH 5 0
BBX 3 3 1 -3
BITMAP
60
20
C0
ENDCHAR
STARTCHAR F006
ENCODING 61446
SWIDTH 576 0
DWIDTH 8 0
BBX 8 7 0 0
BITMAP
FF
42
42
42
42
42
42
ENDCHAR
STARTCHAR F100
ENCODING 61696
SWIDTH 576 0
DWIDTH 8 0
BBX 7 10 1 0
BITMAP
FE
80
80
80
80
80
80
80
80
80
ENDCHAR
STARTCHAR F101
ENCODING 61697
SWIDTH 720 0
DWIDTH 10 0
BBX 8 10 1 0
BITMAP
3C
42
81
81
BD
81
81
81
42
3C
ENDCHAR
STARTCHAR F102
ENCODING 61698
SWIDTH 864 0
DWIDTH 12 0
BBX 9 11 1 -1
BITMAP
0800
3E00
4900
8880
8880
8880
8880
4900
3E00
0800
0800
ENDCHAR
STARTCHAR F103
ENCODING 61699
SWIDTH 648 0
DWIDTH 9 0
BBX 7 7 1 0
BITMAP
7A
8C
84
84
84
8C
72
ENDCHAR
STARTCHAR F104
ENCODING 61700
SWIDTH 648 0
DWIDTH 9 0
BBX 7 11 1 0
BITMAP
1C
20
20
10
78
44
82
82
82
44
38
ENDCHAR
STARTCHAR F105
ENCODING 61701
SWIDTH 504 0
DWIDTH 7 0
BBX 5 7 1 0
BITMAP
38
40
80
F8
80
40
38
ENDCHAR
STARTCHAR F106
ENCODING 61702
SWIDTH 720 0
DWIDTH 10 0
BBX 9 7 1 0
BITMAP
3F80
4200
8100
8100
8100
4200
3C00
ENDCHAR
STARTCHAR F107
ENCODING 61703
SWIDTH 504 0
DWIDTH 7 0
BBX 5 7 1 0
BITMAP
F8
20
20
20
20
20
20
ENDCHAR
STARTCHAR F108
ENCODING 61704
SWIDTH 792 0
DWIDTH 11 0
BBX 9 12 1 -3
BITMAP
0800
0800
3E00
4900
8880
8880
8880
4900
3E00
0800
0800
0800
ENDCHAR
STARTCHAR FB01
ENCODING 64257
SWIDTH 504 0
DWIDTH 7 0
BBX 5 10 1 0
BITMAP
30
48
40
E8
48
48
48
48
48
48
ENDCHAR
STARTCHAR FB02
ENCODING 64258
SWIDTH 504 0
DWIDTH 7 0
BBX 5 10 1 0
BITMAP
30
48
48
E8
48
48
48
48
48
48
ENDCHAR
ENDFONT
